<?xml version="1.0" encoding="UTF-8"?>
<svg version="1.1" xmlns="http://www.w3.org/2000/svg" width="500" height="500">
<path d="M0 0 C165 0 330 0 500 0 C500 165 500 330 500 500 C335 500 170 500 0 500 C0 335 0 170 0 0 Z " fill="#EB0E0D" transform="translate(0,0)"/>
<path d="M0 0 C23.81233908 19.59914672 41.4851513 45.3563397 45.6640625 76.56640625 C47.52258648 99.39642305 45.46039838 120.52366861 35.98046875 141.453125 C35.69655273 142.09507812 35.41263672 142.73703125 35.12011719 143.3984375 C31.5277061 151.43199305 27.21134924 158.23172153 21.703125 165.02734375 C19.69096851 167.3649179 19.69096851 167.3649179 19.98046875 170.453125 C28.52504029 177.30305291 38.28261149 179.80544679 48.98046875 180.453125 C48.98046875 181.113125 48.98046875 181.773125 48.98046875 182.453125 C40.00960555 186.9385566 25.97931439 182.37109388 16.98046875 179.453125 C15.99046875 178.793125 15.00046875 178.133125 13.98046875 177.453125 C10.35694395 177.74417117 8.63292705 179.47483904 6.10546875 181.953125 C-17.88533011 203.90215374 -49.21247151 211.94009463 -80.99707031 210.63330078 C-87.52996383 210.24386012 -93.69778323 209.1952351 -100.01953125 207.453125 C-101.07479004 207.16308594 -101.07479004 207.16308594 -102.15136719 206.8671875 C-130.72431493 198.77838447 -156.80844541 180.31075696 -172.01953125 154.453125 C-187.30808804 126.86798992 -193.52481816 94.58639061 -185.28393555 63.6105957 C-178.98249603 42.02189394 -167.95851974 25.16611837 -153.01953125 8.453125 C-156.36473383 6.52070215 -159.46720607 5.9067397 -163.26953125 5.328125 C-164.3471875 5.16054687 -165.42484375 4.99296875 -166.53515625 4.8203125 C-167.355 4.69914062 -168.17484375 4.57796875 -169.01953125 4.453125 C-169.01953125 3.793125 -169.01953125 3.133125 -169.01953125 2.453125 C-165.92281272 0.90476574 -162.66403586 1.30987498 -159.26953125 1.328125 C-158.56570312 1.32425781 -157.861875 1.32039063 -157.13671875 1.31640625 C-153.8389773 1.32253588 -150.97768263 1.46197186 -147.73046875 2.1484375 C-145.03281481 2.73475128 -145.03281481 2.73475128 -143.10546875 1.265625 C-142.54085937 0.6675 -141.97625 0.069375 -141.39453125 -0.546875 C-104.10526196 -35.81107161 -38.06771028 -29.56910653 0 0 Z " fill="#EB0E0D" transform="translate(321.01953125,156.546875)"/>
<path d="M0 0 C1.10037598 0.00821777 2.20075195 0.01643555 3.33447266 0.02490234 C28.25997647 0.36847309 52.80281316 8.43432215 71.5625 25.25 C72.82126953 26.33087891 72.82126953 26.33087891 74.10546875 27.43359375 C95.9755727 46.52444092 109.21021269 72.26325001 111.5625 101.25 C113.08595215 128.34717541 106.3441934 158.13635913 87.98828125 179.04296875 C86.5625 180.25 86.5625 180.25 84.5625 180.25 C82.9765625 178.01171875 82.9765625 178.01171875 81.1875 174.9375 C80.60226562 173.95136719 80.01703125 172.96523438 79.4140625 171.94921875 C73.53197696 160.66721166 71.91642889 148.79574872 70 136.375 C69.6683198 134.27694094 69.33560755 132.17904483 69.00195312 130.08129883 C68.26404266 125.4324629 67.53246519 120.7826803 66.80419922 116.13232422 C65.55107055 108.15073526 64.26793251 100.17409529 62.98155403 92.19780731 C61.96515743 85.8928791 60.95263184 79.58732734 59.93944168 73.28188324 C59.56246726 70.93729639 59.18482389 68.592818 58.80709839 66.24835205 C58.20884634 62.53306646 57.61391674 58.81726245 57.02140617 55.10105705 C56.80074973 53.72035196 56.57900444 52.33982038 56.35611153 50.95947456 C56.04960989 49.06028178 55.74735681 47.16040481 55.4453125 45.26049805 C55.27402832 44.19139694 55.10274414 43.12229584 54.92626953 42.02079773 C54.5625 39.25 54.5625 39.25 54.5625 35.25 C51.8010763 37.66286533 50.55482161 40.08354248 49.1015625 43.4296875 C48.40498535 45.01704712 48.40498535 45.01704712 47.69433594 46.63647461 C46.94845215 48.36329468 46.94845215 48.36329468 46.1875 50.125 C45.38005357 51.96860367 44.57258749 53.812199 43.76403809 55.65531921 C43.20335181 56.93432581 42.64355085 58.21372084 42.08459473 59.4934845 C39.2076702 66.0793558 36.26168257 72.63371013 33.3125 79.1875 C28.24793599 90.46900208 23.21107459 101.7626891 18.1875 113.0625 C17.85665405 113.80627899 17.52580811 114.55005798 17.18493652 115.31637573 C12.60629779 125.61117571 8.06745158 135.92274242 3.5625 146.25 C0.81947095 144.87848548 0.60222611 143.42325768 -0.57421875 140.61328125 C-0.98736328 139.64197266 -1.40050781 138.67066406 -1.82617188 137.66992188 C-2.25478516 136.64447266 -2.68339844 135.61902344 -3.125 134.5625 C-6.36060049 126.85310859 -9.85054081 119.35475302 -13.62768555 111.89526367 C-16.4454043 106.27581711 -19.00003481 100.53547485 -21.5763855 94.80255127 C-23.19034448 91.21584541 -24.81912806 87.63586251 -26.4453125 84.0546875 C-28.42203689 79.69891176 -30.39669205 75.34224822 -32.36230469 70.98144531 C-33.89591051 67.58140447 -35.44227517 64.18742155 -36.99728394 60.79711914 C-37.57183904 59.5388952 -38.14210298 58.27870074 -38.70755005 57.01635742 C-44.66899518 43.71890624 -52.19797757 31.28349629 -65.4375 24.25 C-62.27905876 16.28448061 -51.90648548 12.81593122 -44.5 9.5625 C-29.81463223 3.29490238 -16.04730924 -0.14653943 0 0 Z " fill="#EB0E0D" transform="translate(248.4375,139.75)"/>
<path d="M0 0 C23.81233908 19.59914672 41.4851513 45.3563397 45.6640625 76.56640625 C47.52258648 99.39642305 45.46039838 120.52366861 35.98046875 141.453125 C35.69655273 142.09507812 35.41263672 142.73703125 35.12011719 143.3984375 C31.5277061 151.43199305 27.21134924 158.23172153 21.703125 165.02734375 C19.69096851 167.3649179 19.69096851 167.3649179 19.98046875 170.453125 C28.52504029 177.30305291 38.28261149 179.80544679 48.98046875 180.453125 C48.98046875 181.113125 48.98046875 181.773125 48.98046875 182.453125 C40.00960555 186.9385566 25.97931439 182.37109388 16.98046875 179.453125 C15.99046875 178.793125 15.00046875 178.133125 13.98046875 177.453125 C10.35694395 177.74417117 8.63292705 179.47483904 6.10546875 181.953125 C-17.88533011 203.90215374 -49.21247151 211.94009463 -80.99707031 210.63330078 C-87.52996383 210.24386012 -93.69778323 209.1952351 -100.01953125 207.453125 C-101.07479004 207.16308594 -101.07479004 207.16308594 -102.15136719 206.8671875 C-130.72431493 198.77838447 -156.80844541 180.31075696 -172.01953125 154.453125 C-187.30808804 126.86798992 -193.52481816 94.58639061 -185.28393555 63.6105957 C-178.98249603 42.02189394 -167.95851974 25.16611837 -153.01953125 8.453125 C-156.36473383 6.52070215 -159.46720607 5.9067397 -163.26953125 5.328125 C-164.3471875 5.16054687 -165.42484375 4.99296875 -166.53515625 4.8203125 C-167.355 4.69914062 -168.17484375 4.57796875 -169.01953125 4.453125 C-169.01953125 3.793125 -169.01953125 3.133125 -169.01953125 2.453125 C-165.92281272 0.90476574 -162.66403586 1.30987498 -159.26953125 1.328125 C-158.56570312 1.32425781 -157.861875 1.32039063 -157.13671875 1.31640625 C-153.8389773 1.32253588 -150.97768263 1.46197186 -147.73046875 2.1484375 C-145.03281481 2.73475128 -145.03281481 2.73475128 -143.10546875 1.265625 C-142.54085937 0.6675 -141.97625 0.069375 -141.39453125 -0.546875 C-104.10526196 -35.81107161 -38.06771028 -29.56910653 0 0 Z M-138.01953125 5.453125 C-138.01953125 6.113125 -138.01953125 6.773125 -138.01953125 7.453125 C-136.54091951 8.55390235 -135.00905855 9.58353225 -133.45703125 10.578125 C-118.36101665 20.96061605 -111.67457939 38.85660112 -104.33203125 55.015625 C-103.54366686 56.73783809 -102.75484229 58.4598406 -101.96557617 60.18164062 C-96.14794425 72.8924668 -90.42413379 85.64516619 -84.7265625 98.41015625 C-80.05202003 108.87007159 -75.23035487 119.24759487 -70.01953125 129.453125 C-67.84280328 127.27639703 -67.08814405 125.62118435 -65.875 122.80859375 C-65.45202637 121.83631836 -65.02905273 120.86404297 -64.59326172 119.86230469 C-64.13580566 118.79915039 -63.67834961 117.73599609 -63.20703125 116.640625 C-62.21458004 114.35762124 -61.22104638 112.0750878 -60.2265625 109.79296875 C-59.70400879 108.59269043 -59.18145508 107.39241211 -58.64306641 106.15576172 C-56.21436088 100.59995336 -53.71714546 95.07489505 -51.22555542 89.54708862 C-46.73166962 79.57558329 -42.32632572 69.57344543 -38.05249023 59.50561523 C-35.43053726 53.35123293 -32.65531756 47.28818567 -29.78515625 41.24609375 C-28.43167777 38.37421064 -27.14565968 35.47756821 -25.87890625 32.56640625 C-25.51740479 31.73778076 -25.15590332 30.90915527 -24.78344727 30.05541992 C-24.07790463 28.4316637 -23.37767189 26.80558761 -22.68334961 25.17700195 C-20.23982857 19.56327366 -20.23982857 19.56327366 -18.01953125 18.453125 C-17.9230127 19.37867188 -17.82649414 20.30421875 -17.72705078 21.2578125 C-16.26137851 34.73211891 -14.08034763 48.08000556 -11.89453125 61.453125 C-11.28863515 65.16923203 -10.68304438 68.88538863 -10.07765198 72.60157776 C-9.66574659 75.12968442 -9.25334035 77.65770953 -8.84043884 80.18565369 C-7.65306437 87.47658202 -6.49869633 94.77153193 -5.38214111 102.07363892 C-4.70339192 106.50714304 -4.01165269 110.93857513 -3.31866455 115.36987305 C-2.998746 117.43792802 -2.68488491 119.50693079 -2.37762451 121.5769043 C-0.10536365 136.8556728 3.01736089 150.53570485 11.98046875 163.453125 C22.4698821 159.12054123 28.03859425 142.33532837 32.26953125 132.4375 C42.5862047 105.50389451 41.45785356 74.80270378 29.98046875 48.453125 C17.98924535 22.12512807 -3.38961022 1.67594806 -30.01953125 -9.546875 C-62.77664634 -21.4495931 -111.47138444 -21.17746947 -138.01953125 5.453125 Z M-146.01953125 12.453125 C-166.61739972 31.66496867 -180.24037575 57.5535449 -181.390625 86.01171875 C-181.65393694 100.8567324 -180.6164447 114.30310686 -176.01953125 128.453125 C-175.80022949 129.14148438 -175.58092773 129.82984375 -175.35498047 130.5390625 C-170.12575483 146.3951714 -160.81125319 159.80717984 -149.01953125 171.453125 C-148.54257813 171.93120605 -148.065625 172.40928711 -147.57421875 172.90185547 C-133.00205782 187.40096078 -114.91401041 196.67749008 -95.01953125 201.453125 C-94.16746094 201.67871094 -93.31539063 201.90429688 -92.4375 202.13671875 C-64.69839142 208.47084591 -35.49504467 200.72889847 -11.6640625 186.44140625 C-5.26709712 182.31459335 0.46281406 177.69211026 5.98046875 172.453125 C4.61757526 169.40665721 3.0502323 167.33558487 0.73046875 164.953125 C-11.5063616 151.16443052 -13.61738761 132.31674228 -15.89453125 114.765625 C-16.14426338 112.90114061 -16.39509835 111.03680364 -16.64697266 109.17260742 C-17.17248766 105.27707685 -17.69321557 101.38094851 -18.2109375 97.484375 C-19.42707365 88.36855101 -20.71095639 79.26214063 -21.98931885 70.15487671 C-22.63474839 65.55282505 -23.27625875 60.95022777 -23.91796875 56.34765625 C-24.13328138 54.80444065 -24.34861126 53.26122746 -24.56396484 51.71801758 C-24.71430176 50.64060303 -24.86463867 49.56318848 -25.01953125 48.453125 C-25.67953125 48.453125 -26.33953125 48.453125 -27.01953125 48.453125 C-27.48359375 49.55140625 -27.94765625 50.6496875 -28.42578125 51.78125 C-33.38237944 63.4533589 -38.48624966 75.05667949 -43.64453125 86.640625 C-44.33034571 88.18171157 -45.01613656 89.72280865 -45.7019043 91.26391602 C-48.52010652 97.59597436 -51.33930436 103.92758691 -54.16162109 110.2578125 C-55.89415634 114.14481977 -57.6222797 118.03376382 -59.34759521 121.92398071 C-59.99584035 123.38362748 -60.64558279 124.84261035 -61.29693604 126.3008728 C-67.5010536 138.92089166 -67.5010536 138.92089166 -70.01953125 152.453125 C-71.00953125 152.453125 -71.99953125 152.453125 -73.01953125 152.453125 C-73.28636719 151.60484131 -73.55320312 150.75655762 -73.828125 149.88256836 C-75.06047354 146.3352733 -76.51419091 142.99407622 -78.08203125 139.58203125 C-78.38539398 138.9197049 -78.68875671 138.25737854 -79.00131226 137.57498169 C-80.00438568 135.38713856 -81.01192133 133.2013821 -82.01953125 131.015625 C-82.73021816 129.46796394 -83.44066252 127.92019149 -84.15087891 126.37231445 C-86.43536489 121.39691361 -88.72658228 116.42463039 -91.01953125 111.453125 C-91.40782104 110.61124634 -91.79611084 109.76936768 -92.19616699 108.90197754 C-95.69062414 101.32673035 -99.18739125 93.75255071 -102.68701172 86.1796875 C-108.17917272 74.2924299 -113.62845561 62.38663666 -119.01953125 50.453125 C-119.34953125 50.453125 -119.67953125 50.453125 -120.01953125 50.453125 C-121.65907668 60.15154572 -122.7004075 69.85380064 -123.52734375 79.6484375 C-123.65876013 81.17294405 -123.79042831 82.69742891 -123.92233276 84.22189331 C-124.195718 87.39329668 -124.46594982 90.56494824 -124.73388672 93.73681641 C-125.07508058 97.77264655 -125.42446503 101.80771868 -125.77624702 105.84263802 C-126.04902648 108.98244787 -126.31731544 112.12262959 -126.58431625 115.26293564 C-126.71129774 116.74998743 -126.83964955 118.23692296 -126.96948624 119.72372818 C-129.23337638 133.89590051 -129.23337638 133.89590051 -126.39453125 147.140625 C-123.42607411 148.78108816 -121.36087546 148.75688356 -118.01953125 148.453125 C-118.01953125 149.113125 -118.01953125 149.773125 -118.01953125 150.453125 C-129.89953125 150.453125 -141.77953125 150.453125 -154.01953125 150.453125 C-154.01953125 149.793125 -154.01953125 149.133125 -154.01953125 148.453125 C-153.43945312 148.43894531 -152.859375 148.42476562 -152.26171875 148.41015625 C-146.17490646 148.0385192 -143.12031111 147.05399996 -139.01953125 142.453125 C-136.89387459 136.54766432 -136.30804656 130.54327681 -135.64453125 124.328125 C-135.45890625 122.65737915 -135.45890625 122.65737915 -135.26953125 120.95288086 C-134.92229266 117.81092483 -134.5809225 114.66839986 -134.24279785 111.52545166 C-134.01045497 109.36888033 -133.77644019 107.2124958 -133.54199219 105.05615234 C-132.7747772 97.99865406 -132.01103696 90.94079416 -131.25267029 83.88233948 C-130.18371297 73.93572355 -129.08812793 63.99233105 -127.97070312 54.05102539 C-127.75172889 52.09655378 -127.53931808 50.14133119 -127.3347168 48.18530273 C-127.12521788 46.36926678 -126.87156008 44.55776577 -126.57348633 42.75415039 C-125.78860792 37.54013973 -125.85097378 34.38532879 -128.82714844 29.95019531 C-129.24125977 29.39428711 -129.65537109 28.83837891 -130.08203125 28.265625 C-130.49743164 27.66975586 -130.91283203 27.07388672 -131.34082031 26.45996094 C-132.53743055 24.76653964 -133.76868715 23.10672092 -135.01953125 21.453125 C-135.60089844 20.66808594 -136.18226563 19.88304687 -136.78125 19.07421875 C-139.56209262 15.57809378 -141.86451754 13.9310829 -146.01953125 12.453125 Z " fill="#FCF3F1" transform="translate(321.01953125,156.546875)"/>
<path d="M0 0 C0.66 0 1.32 0 2 0 C2.66 1.98 3.32 3.96 4 6 C4.99 6 5.98 6 7 6 C7 4.02 7 2.04 7 0 C19.56865396 18.85298093 18.85211853 46.48976865 15.6875 67.9375 C15.56995361 68.73486572 15.45240723 69.53223145 15.33129883 70.35375977 C14.4701575 75.53436396 12.97599245 80.13474128 11 85 C10.67 85 10.34 85 10 85 C9.79939084 80.68690311 10.39008434 77.95285833 12 74 C14.05922685 65.86432558 14.39987457 57.66559136 14.625 49.3125 C14.66367187 48.12205078 14.70234375 46.93160156 14.7421875 45.70507812 C14.83540995 42.80352947 14.92121348 39.90197034 15 37 C13.515 37.495 13.515 37.495 12 38 C11.98018066 38.55236328 11.96036133 39.10472656 11.93994141 39.67382812 C10.82030338 69.53908985 10.82030338 69.53908985 8 78 C7.34 78 6.68 78 6 78 C6.42440928 74.39252114 6.84882465 70.81473128 7.51171875 67.2421875 C11.32391197 46.09938537 8.90907655 25.19764273 1.20703125 5.24609375 C0 2 0 2 0 0 Z " fill="#FCE8E7" transform="translate(350,203)"/>
<path d="M0 0 C12.50780073 -0.5426076 23.69677298 0.24343612 35.36035156 5.12792969 C35.85535156 6.11792969 35.85535156 6.11792969 36.36035156 7.12792969 C32.22632012 7.95473598 28.73205601 8.12550101 24.54785156 7.69042969 C7.64102707 6.35003663 -8.931164 6.54461501 -25.60107422 9.76416016 C-28.93175884 10.35849789 -32.27941962 10.73861184 -35.63964844 11.12792969 C-35.63964844 10.46792969 -35.63964844 9.80792969 -35.63964844 9.12792969 C-34.05765213 8.47882815 -32.4739912 7.83378274 -30.88964844 7.19042969 C-30.00792969 6.83078125 -29.12621094 6.47113281 -28.21777344 6.10058594 C-25.63964844 5.12792969 -25.63964844 5.12792969 -23.37402344 4.68652344 C-22.80167969 4.5021875 -22.22933594 4.31785156 -21.63964844 4.12792969 C-21.30964844 3.13792969 -20.97964844 2.14792969 -20.63964844 1.12792969 C-13.76309988 0.65773833 -6.88412303 0.33363674 0 0 Z " fill="#FDFAF8" transform="translate(244.6396484375,133.8720703125)"/>
<path d="M0 0 C1.32 0.33 2.64 0.66 4 1 C3.14277344 1.50789062 2.28554687 2.01578125 1.40234375 2.5390625 C0.24647986 3.23285125 -0.90840452 3.92827352 -2.0625 4.625 C-2.6594165 4.98456787 -3.25633301 5.34413574 -3.87133789 5.71459961 C-7.19317294 7.7561959 -10.12931834 9.86232533 -12.9375 12.5625 C-13.948125 13.366875 -14.95875 14.17125 -16 15 C-18.0101679 14.73479044 -20.00927277 14.38485866 -22 14 C-25.12566212 13.86746433 -28.24717604 13.90507439 -31.375 13.9375 C-32.20644531 13.94201172 -33.03789062 13.94652344 -33.89453125 13.95117188 C-35.92971897 13.96286836 -37.96486923 13.98080065 -40 14 C-40 14.66 -40 15.32 -40 16 C-39.443125 15.96519531 -38.88625 15.93039063 -38.3125 15.89453125 C-32.45298962 15.686677 -28.3699664 16.65674193 -23 19 C-25.5102886 23.87291316 -29.09551889 27.25524766 -33 31 C-34.485 32.485 -34.485 32.485 -36 34 C-36 30.7 -36 27.4 -36 24 C-37.423125 23.896875 -38.84625 23.79375 -40.3125 23.6875 C-43.21165331 23.47741643 -44.56549753 23.37391825 -46.79296875 21.45703125 C-47.39044922 20.73580078 -47.39044922 20.73580078 -48 20 C-47 19 -47 19 -44.4375 18.9375 C-43.2309375 18.9684375 -43.2309375 18.9684375 -42 19 C-42 18.34 -42 17.68 -42 17 C-42.66 17 -43.32 17 -44 17 C-44.33 15.35 -44.66 13.7 -45 12 C-42.20299508 10.60149754 -40.01884641 10.9898616 -36.8984375 11.12109375 C-35.08085937 11.19360352 -35.08085937 11.19360352 -33.2265625 11.26757812 C-31.32003906 11.35168945 -31.32003906 11.35168945 -29.375 11.4375 C-27.456875 11.51581055 -27.456875 11.51581055 -25.5 11.59570312 C-22.333103 11.7256877 -19.16649713 11.86066402 -16 12 C-15.67 10.35 -15.34 8.7 -15 7 C-13.35 7 -11.7 7 -10 7 C-10 6.34 -10 5.68 -10 5 C-8.02 4.67 -6.04 4.34 -4 4 C-4 3.34 -4 2.68 -4 2 C-2.68 2 -1.36 2 0 2 C0 1.34 0 0.68 0 0 Z " fill="#E70E0A" transform="translate(192,145)"/>
<path d="M0 0 C2.97274357 3.55185688 4.78964038 7.54632913 6.6875 11.73046875 C7.03127686 12.48032547 7.37505371 13.23018219 7.72924805 14.00276184 C8.45436068 15.58775229 9.17704706 17.17385467 9.89746094 18.76098633 C10.98972987 21.16489707 12.09191883 23.5640694 13.1953125 25.96289062 C13.90164642 27.51014073 14.60739417 29.05765859 15.3125 30.60546875 C15.63758545 31.31205124 15.9626709 32.01863373 16.29760742 32.74662781 C18.54900956 37.73022156 20.35899927 42.78471594 22 48 C21.34 48 20.68 48 20 48 C19.34 46.68 18.68 45.36 18 44 C17.34 44.99 16.68 45.98 16 47 C13.57142857 40.71428571 13.57142857 40.71428571 15 37 C14.34 37 13.68 37 13 37 C12.67 37.66 12.34 38.32 12 39 C11.67 37.68 11.34 36.36 11 35 C11.66 35 12.32 35 13 35 C12.505 32.525 12.505 32.525 12 30 C11.34 30 10.68 30 10 30 C9.87625 29.030625 9.7525 28.06125 9.625 27.0625 C9.41875 26.051875 9.2125 25.04125 9 24 C8.34 23.67 7.68 23.34 7 23 C6.27306096 21.02111039 5.60183749 19.02045442 5 17 C4.01 17 3.02 17 2 17 C1.34 20.63 0.68 24.26 0 28 C-0.66 28 -1.32 28 -2 28 C-2 33.61 -2 39.22 -2 45 C-2.66 45 -3.32 45 -4 45 C-3.53289266 35.04323837 -2.89412263 25.11574483 -2 15.1875 C-1.9170166 14.25147949 -1.8340332 13.31545898 -1.74853516 12.35107422 C-1.66651855 11.46564941 -1.58450195 10.58022461 -1.5 9.66796875 C-1.4278125 8.88703857 -1.355625 8.1061084 -1.28125 7.30151367 C-0.97973965 4.83420632 -0.51597483 2.43072517 0 0 Z " fill="#DE1919" transform="translate(201,207)"/>
<path d="M0 0 C0.99 0 1.98 0 3 0 C3.60874193 27.67746657 3.60874193 27.67746657 0 40 C-0.40106759 41.62371605 -0.79771038 43.24853971 -1.1875 44.875 C-1.455625 45.90625 -1.72375 46.9375 -2 48 C-3.32 48 -4.64 48 -6 48 C-6 45.69 -6 43.38 -6 41 C-5.34 41 -4.68 41 -4 41 C-2.68956469 29.86766121 -1.72656049 18.79915426 -1.34204102 7.59301758 C-1.31037842 6.74505615 -1.27871582 5.89709473 -1.24609375 5.0234375 C-1.22216553 4.26981934 -1.1982373 3.51620117 -1.17358398 2.73974609 C-1 1 -1 1 0 0 Z " fill="#FCFCFC" transform="translate(362,240)"/>
<path d="M0 0 C2.12129465 3.18194198 3.18791247 6.09833032 4.5 9.6875 C7.85334844 18.50835947 12.79453123 26.17122187 18 34 C16.02 34.495 16.02 34.495 14 35 C13.34 32.69 12.68 30.38 12 28 C11.34 28 10.68 28 10 28 C10 30.31 10 32.62 10 35 C6.41080538 30.85357881 3.9059186 26.45061814 1.375 21.625 C0.98054687 20.89539063 0.58609375 20.16578125 0.1796875 19.4140625 C-2.15126383 15.00415457 -3.81086245 10.84605516 -5 6 C-4.34 6 -3.68 6 -3 6 C0 12.625 0 12.625 0 16 C0.66 16 1.32 16 2 16 C1.855625 15.34773438 1.71125 14.69546875 1.5625 14.0234375 C0.55372706 9.27379823 -0.25715306 4.88590812 0 0 Z " fill="#FEECE9" transform="translate(144,282)"/>
<path d="M0 0 C-0.165 0.639375 -0.33 1.27875 -0.5 1.9375 C-1.03926667 3.80826821 -1.03926667 3.80826821 -1 5 C-0.195625 5.268125 0.60875 5.53625 1.4375 5.8125 C2.283125 6.204375 3.12875 6.59625 4 7 C4.495 8.485 4.495 8.485 5 10 C3.329375 9.4121875 3.329375 9.4121875 1.625 8.8125 C-6.14742662 6.20917514 -14.09511272 4.15742878 -22 2 C-22 1.67 -22 1.34 -22 1 C-21.36191406 1.01160156 -20.72382813 1.02320313 -20.06640625 1.03515625 C-19.24011719 1.04417969 -18.41382813 1.05320313 -17.5625 1.0625 C-16.32693359 1.07990234 -16.32693359 1.07990234 -15.06640625 1.09765625 C-13.00836062 1.23267348 -13.00836062 1.23267348 -12 0 C-28.03885318 -6.85630365 -44.92833787 -5.49086881 -62 -5 C-62 -5.33 -62 -5.66 -62 -6 C-41.55741752 -9.7785499 -19.29971838 -7.61945895 0 0 Z " fill="#FDE9E7" transform="translate(292,140)"/>
<path d="M0 0 C0.33 0 0.66 0 1 0 C1.01981934 0.8156543 1.03963867 1.63130859 1.06005859 2.47167969 C1.13912506 5.55832985 1.22583674 8.64465368 1.31738281 11.73095703 C1.37355573 13.69938943 1.42126471 15.66805762 1.46875 17.63671875 C1.82432414 29.3114031 3.35798523 39.98500936 7.0625 51.0625 C7.33126953 51.88943359 7.60003906 52.71636719 7.87695312 53.56835938 C8.57627131 55.71514414 9.28486017 57.85844464 10 60 C10.33 60.99 10.66 61.98 11 63 C10.01 63.495 10.01 63.495 9 64 C8.35366725 62.22934889 7.7079517 60.45847247 7.0625 58.6875 C6.52302734 57.20830078 6.52302734 57.20830078 5.97265625 55.69921875 C5.29114035 53.8079437 4.6357189 51.90715671 4 50 C3.34 49.67 2.68 49.34 2 49 C2 50.32 2 51.64 2 53 C0.515 53.495 0.515 53.495 -1 54 C-2.6815235 52.3184765 -2.1300762 50.23658131 -2.1328125 47.93359375 C-2.13410156 46.89009766 -2.13539063 45.84660156 -2.13671875 44.77148438 C-2.13285156 43.67126953 -2.12898437 42.57105469 -2.125 41.4375 C-2.12886719 40.36435547 -2.13273438 39.29121094 -2.13671875 38.18554688 C-2.125837 29.30059973 -2.125837 29.30059973 -1.52734375 24.91015625 C-0.85767078 19.94465519 -0.64796288 15.00280616 -0.4375 10 C-0.37272461 8.55173828 -0.37272461 8.55173828 -0.30664062 7.07421875 C-0.20158287 4.71625575 -0.09943086 2.35820584 0 0 Z " fill="#DB1B1E" transform="translate(132,235)"/>
<path d="M0 0 C1.59618164 -0.0009668 1.59618164 -0.0009668 3.22460938 -0.00195312 C10.8547429 0.05237145 10.8547429 0.05237145 13.125 1.1875 C15.3925196 1.39442194 17.66446324 1.55421198 19.9375 1.6875 C26.70023364 2.08656542 26.70023364 2.08656542 29.88671875 2.84375 C32.4049285 3.48807448 32.4049285 3.48807448 35.125 1.1875 C35.125 1.8475 35.125 2.5075 35.125 3.1875 C36.115 3.1875 37.105 3.1875 38.125 3.1875 C38.228125 3.826875 38.33125 4.46625 38.4375 5.125 C38.664375 5.805625 38.89125 6.48625 39.125 7.1875 C40.115 7.5175 41.105 7.8475 42.125 8.1875 C42.125 8.8475 42.125 9.5075 42.125 10.1875 C37.43780791 9.20470166 32.87510832 8.14428094 28.3125 6.6875 C17.98350714 3.54872825 7.87212207 2.88853967 -2.875 3 C-4.64617187 3.0009668 -4.64617187 3.0009668 -6.453125 3.00195312 C-13.97130861 3.03921285 -21.39416626 3.44335571 -28.875 4.1875 C-28.875 3.5275 -28.875 2.8675 -28.875 2.1875 C-19.21537769 0.59650338 -9.78836123 -0.00585779 0 0 Z " fill="#D32023" transform="translate(252.875,130.8125)"/>
<path d="M0 0 C0.66 0.33 1.32 0.66 2 1 C1.44904388 5.95860508 -2.28897209 8.41118837 -5.75 11.625 C-7.25659086 13.09616618 -7.25659086 13.09616618 -8 16 C-8.66 16 -9.32 16 -10 16 C-10.433125 17.11375 -10.433125 17.11375 -10.875 18.25 C-12 21 -12 21 -13 22.9375 C-14.13379295 25.13177331 -14.13379295 25.13177331 -14.9375 28.1875 C-15.288125 29.115625 -15.63875 30.04375 -16 31 C-16.99 31.33 -17.98 31.66 -19 32 C-21 29 -21 29 -20.8125 27.125 C-19.8244145 24.54077637 -18.47535773 22.33598308 -17 20 C-16.67 19.34 -16.34 18.68 -16 18 C-15.01 18 -14.02 18 -13 18 C-12.88140625 17.27039063 -12.7628125 16.54078125 -12.640625 15.7890625 C-11.39085302 10.34798206 -8.81491764 5.35063639 -4.3125 2 C-3.549375 1.67 -2.78625 1.34 -2 1 C-1.34 0.67 -0.68 0.34 0 0 Z " fill="#FBFAFB" transform="translate(168,169)"/>
<path d="M0 0 C0.1183055 13.04454645 -0.03360558 25.98818941 -1 39 C-1.33 39 -1.66 39 -2 39 C-2 37.35 -2 35.7 -2 34 C-3.485 34.495 -3.485 34.495 -5 35 C-7.18297154 30.63405691 -5.69000489 24.5491114 -5.38574219 19.71435547 C-5.25057324 17.50935118 -5.13667823 15.30388106 -5.0234375 13.09765625 C-4.93880997 11.70044087 -4.85291488 10.30330158 -4.765625 8.90625 C-4.69118164 7.63072266 -4.61673828 6.35519531 -4.54003906 5.04101562 C-4.27271973 3.53571289 -4.27271973 3.53571289 -4 2 C-1 0 -1 0 0 0 Z " fill="#FCFAFB" transform="translate(140,222)"/>
<path d="M0 0 C0.66 0.33 1.32 0.66 2 1 C1.87271011 1.74973083 1.74542023 2.49946167 1.61427307 3.27191162 C0.15574781 12.24117075 -0.7306297 21.21553283 -1.47265625 30.265625 C-1.60149954 31.79493732 -1.73077567 33.32421322 -1.86045837 34.85345459 C-2.19762921 38.84111499 -2.52970286 42.829182 -2.8604126 46.81738281 C-3.39162994 53.21188548 -3.9311621 59.60569324 -4.46990776 65.99956512 C-4.65576485 68.2133188 -4.83967914 70.4272266 -5.02320862 72.64117432 C-5.58986494 79.43978699 -6.19800364 86.22465949 -7 93 C-7.33 93 -7.66 93 -8 93 C-7.88173257 88.21264074 -7.75748287 83.42548829 -7.62768555 78.63842773 C-7.58437251 77.00988996 -7.54269482 75.38130784 -7.50268555 73.75268555 C-7.44489497 71.41181065 -7.38122602 69.07115824 -7.31640625 66.73046875 C-7.29133751 65.63813179 -7.29133751 65.63813179 -7.26576233 64.52372742 C-7.17532762 61.43833061 -6.98276007 58.94828022 -6 56 C-5.82083827 54.59265132 -5.6823494 53.17990112 -5.5703125 51.765625 C-5.4628772 50.46081177 -5.4628772 50.46081177 -5.35327148 49.12963867 C-5.27794189 48.17935791 -5.2026123 47.22907715 -5.125 46.25 C-4.34726128 36.92397761 -3.52292033 27.60349403 -2.63641357 18.28723145 C-2.50386476 16.88804636 -2.37288173 15.48871205 -2.24346924 14.0892334 C-2.06071536 12.1151163 -1.87227579 10.14152807 -1.68359375 8.16796875 C-1.57587646 7.02610107 -1.46815918 5.8842334 -1.35717773 4.70776367 C-1 2 -1 2 0 0 Z " fill="#FDD5D4" transform="translate(200,206)"/>
<path d="M0 0 C0.33 0 0.66 0 1 0 C1.26404456 6.86515862 0.25841946 13.25846717 -1 20 C-0.01 20.33 0.98 20.66 2 21 C1.67 22.98 1.34 24.96 1 27 C0.01 26.01 -0.98 25.02 -2 24 C-2.66 24.99 -3.32 25.98 -4 27 C-4.66 27 -5.32 27 -6 27 C-5.896875 28.2375 -5.79375 29.475 -5.6875 30.75 C-5.67578125 32.96875 -5.67578125 32.96875 -6 35 C-8.375 37.25 -8.375 37.25 -11 39 C-12.31165257 41.11660427 -12.31165257 41.11660427 -13 43 C-13.66 43 -14.32 43 -15 43 C-13.60863776 39.43205129 -12.09539447 35.92872923 -10.5378418 32.43041992 C-5.80117405 21.76499981 -1.70855879 11.62269595 0 0 Z " fill="#D52629" transform="translate(365,269)"/>
<path d="M0 0 C1.37523135 0.14363527 2.75017402 0.29003517 4.125 0.4375 C4.89070312 0.51871094 5.65640625 0.59992188 6.4453125 0.68359375 C8.26471717 0.90893286 10.07647686 1.20010493 11.87890625 1.53515625 C15.24565937 2.03658757 18.41144058 2.0621908 21.8125 2 C23.87466301 1.96271796 25.93804011 1.95280206 28 2 C28.33 2.33 28.66 2.66 29 3 C31.07262076 3.08767112 33.14820294 3.10695873 35.22265625 3.09765625 C37.11274414 3.09282227 37.11274414 3.09282227 39.04101562 3.08789062 C40.38151109 3.07953403 41.72200588 3.07106907 43.0625 3.0625 C44.40689942 3.0574866 45.7513006 3.05292342 47.09570312 3.04882812 C50.39717941 3.03699488 53.69856803 3.02050971 57 3 C57 2.01 57 1.02 57 0 C59.64 0.33 62.28 0.66 65 1 C62.29752613 2.80164924 60.98196603 3.40498374 57.9375 4.0625 C57.24527344 4.21847656 56.55304688 4.37445313 55.83984375 4.53515625 C39.40408951 7.2254654 14.54528778 9.69685852 0 0 Z " fill="#D62528" transform="translate(215,354)"/>
<path d="M0 0 C1.32 0.33 2.64 0.66 4 1 C3.14277344 1.50789062 2.28554687 2.01578125 1.40234375 2.5390625 C0.24647986 3.23285125 -0.90840452 3.92827352 -2.0625 4.625 C-2.6594165 4.98456787 -3.25633301 5.34413574 -3.87133789 5.71459961 C-7.19317294 7.7561959 -10.12931834 9.86232533 -12.9375 12.5625 C-14.4534375 13.7690625 -14.4534375 13.7690625 -16 15 C-18.0101679 14.73479044 -20.00927277 14.38485866 -22 14 C-25.12566212 13.86746433 -28.24717604 13.90507439 -31.375 13.9375 C-32.20644531 13.94201172 -33.03789062 13.94652344 -33.89453125 13.95117188 C-35.92971897 13.96286836 -37.96486923 13.98080065 -40 14 C-40 14.66 -40 15.32 -40 16 C-37.03 16 -34.06 16 -31 16 C-31 16.33 -31 16.66 -31 17 C-35.29 17 -39.58 17 -44 17 C-44.33 15.35 -44.66 13.7 -45 12 C-42.20299508 10.60149754 -40.01884641 10.9898616 -36.8984375 11.12109375 C-35.08085937 11.19360352 -35.08085937 11.19360352 -33.2265625 11.26757812 C-31.32003906 11.35168945 -31.32003906 11.35168945 -29.375 11.4375 C-27.456875 11.51581055 -27.456875 11.51581055 -25.5 11.59570312 C-22.333103 11.7256877 -19.16649713 11.86066402 -16 12 C-15.67 10.35 -15.34 8.7 -15 7 C-13.35 7 -11.7 7 -10 7 C-10 6.34 -10 5.68 -10 5 C-8.02 4.67 -6.04 4.34 -4 4 C-4 3.34 -4 2.68 -4 2 C-2.68 2 -1.36 2 0 2 C0 1.34 0 0.68 0 0 Z " fill="#D62224" transform="translate(192,145)"/>
<path d="M0 0 C0 0.99 0 1.98 0 3 C-2 5 -2 5 -3.9453125 5.1953125 C-5.96354167 5.13020833 -7.98177083 5.06510417 -10 5 C-10 5.66 -10 6.32 -10 7 C-10.57032959 7.08564209 -11.14065918 7.17128418 -11.72827148 7.25952148 C-14.29867816 7.647928 -16.86807894 8.04262829 -19.4375 8.4375 C-20.33533203 8.57220703 -21.23316406 8.70691406 -22.15820312 8.84570312 C-23.01220703 8.97783203 -23.86621094 9.10996094 -24.74609375 9.24609375 C-25.53685303 9.36654053 -26.3276123 9.4869873 -27.14233398 9.61108398 C-29.00702617 9.82462442 -29.00702617 9.82462442 -30 11 C-33.8053484 11.2561582 -37.62457575 11.18524783 -41.4375 11.1875 C-43.02208008 11.20586914 -43.02208008 11.20586914 -44.63867188 11.22460938 C-51.33437403 11.2369859 -57.49656589 10.60516868 -64 9 C-64 8.67 -64 8.34 -64 8 C-63.06953857 8.02094727 -62.13907715 8.04189453 -61.18041992 8.06347656 C-39.76077492 8.48183418 -20.13353795 8.50585423 0 0 Z " fill="#CC1C1D" transform="translate(294,358)"/>
<path d="M0 0 C0.66 0 1.32 0 2 0 C3.0057498 6.95472294 4.0015881 13.9108146 4.99072266 20.86791992 C5.32798799 23.23184921 5.66747624 25.59546251 6.00927734 27.95874023 C6.50169822 31.36620659 6.98597212 34.77474943 7.46875 38.18359375 C7.62186646 39.23083115 7.77498291 40.27806854 7.93273926 41.35704041 C8.76611699 47.30569617 9.15283092 52.99319919 9 59 C6.55986408 54.11972815 5.60250798 50.18577656 5.0625 44.73828125 C4.97750244 43.91426315 4.89250488 43.09024506 4.80493164 42.24125671 C4.53293793 39.59869979 4.26621259 36.95564505 4 34.3125 C3.73292482 31.6873052 3.46472222 29.06223282 3.19506836 26.43730164 C3.02751764 24.80353322 2.86157809 23.16959849 2.69750977 21.53547668 C2.23595182 17.00401773 1.67582558 12.50463167 1 8 C-1.51083114 9.25541557 -1.87125446 10.50063488 -3 13 C-4.23593891 9.29218328 -3.5678132 8.32489747 -2.0625 4.8125 C-1.68222656 3.91144531 -1.30195313 3.01039063 -0.91015625 2.08203125 C-0.60980469 1.39496094 -0.30945313 0.70789063 0 0 Z " fill="#D62E30" transform="translate(294,205)"/>
<path d="M0 0 C2.32972228 0.90182798 4.62297979 1.80509972 6.84375 2.953125 C13.63998929 6.35124465 20.49938537 7.18912274 28 8 C28 8.66 28 9.32 28 10 C18.83686485 14.58156757 5.20553945 9.67797511 -4 7 C-0.34811918 5.92825237 2.26432828 6.23588533 6 7 C3.94766315 4.7522025 2.99332739 3.9977758 0 3 C0 2.01 0 1.02 0 0 Z " fill="#F9CCC7" transform="translate(342,329)"/>
<path d="M0 0 C0.33 0.66 0.66 1.32 1 2 C0.360625 2.9075 -0.27875 3.815 -0.9375 4.75 C-2.61428953 7.39221381 -3.53689998 8.9898499 -4 12 C-4.99 12 -5.98 12 -7 12 C-7.28875 12.94875 -7.5775 13.8975 -7.875 14.875 C-9 18 -9 18 -11 20 C-10.83557723 23.06991681 -10.83557723 23.06991681 -10 26 C-9.34 26.33 -8.68 26.66 -8 27 C-9.32 30.3 -10.64 33.6 -12 37 C-12.33 37 -12.66 37 -13 37 C-13 34.36 -13 31.72 -13 29 C-13.66 29 -14.32 29 -15 29 C-15.99 32.465 -15.99 32.465 -17 36 C-17.33 36 -17.66 36 -18 36 C-18.43806752 30.74318972 -17.00429983 27.07040645 -14.625 22.5 C-14.27501953 21.81164062 -13.92503906 21.12328125 -13.56445312 20.4140625 C-9.73526466 13.11655151 -4.98707507 6.54042632 0 0 Z " fill="#FCEFEF" transform="translate(159,175)"/>
<path d="M0 0 C0.66 0 1.32 0 2 0 C2 0.66 2 1.32 2 2 C4.64 2.66 7.28 3.32 10 4 C10 4.66 10 5.32 10 6 C11.32 6.33 12.64 6.66 14 7 C14 7.99 14 8.98 14 10 C13.01 9.67 12.02 9.34 11 9 C11 8.34 11 7.68 11 7 C8.74128257 6.12349678 8.74128257 6.12349678 6 6 C-1.28435061 11.04115655 -6.37168592 19.01998154 -11.1875 26.3125 C-13 29 -13 29 -15 31 C-15.33 30.34 -15.66 29.68 -16 29 C-15.07421875 27.0546875 -15.07421875 27.0546875 -13.6875 24.875 C-13.23761719 24.15054688 -12.78773438 23.42609375 -12.32421875 22.6796875 C-11.88722656 22.12539062 -11.45023438 21.57109375 -11 21 C-10.34 21 -9.68 21 -9 21 C-8.938125 20.278125 -8.87625 19.55625 -8.8125 18.8125 C-7.74007034 15.1002435 -5.90242087 13.48778932 -3 11 C-2.01 10.67 -1.02 10.34 0 10 C-0.33 8.68 -0.66 7.36 -1 6 C-2.32 6.33 -3.64 6.66 -5 7 C-4.21654285 5.82780457 -3.42297164 4.66236332 -2.625 3.5 C-2.18414062 2.8503125 -1.74328125 2.200625 -1.2890625 1.53125 C-0.86367187 1.0259375 -0.43828125 0.520625 0 0 Z " fill="#FCE2DC" transform="translate(169,164)"/>
<path d="M0 0 C0.33 0 0.66 0 1 0 C0.40670916 11.56075233 -0.69632654 23.00687087 -2.0625 34.5 C-2.25104104 36.11323572 -2.43919385 37.72651686 -2.62695312 39.33984375 C-3.08018575 43.22709787 -3.53858313 47.11370921 -4 51 C-4.33 51 -4.66 51 -5 51 C-5.02692484 48.70839681 -5.04636124 46.41670454 -5.0625 44.125 C-5.07410156 42.84882813 -5.08570313 41.57265625 -5.09765625 40.2578125 C-5 37 -5 37 -4 35 C-3.91528636 33.18658158 -3.89278917 31.37005839 -3.90234375 29.5546875 C-3.90556641 28.47832031 -3.90878906 27.40195313 -3.91210938 26.29296875 C-3.92467773 24.60107422 -3.92467773 24.60107422 -3.9375 22.875 C-3.94426758 21.17150391 -3.94426758 21.17150391 -3.95117188 19.43359375 C-3.96298385 16.62234362 -3.97945493 13.8111977 -4 11 C-4.66 11 -5.32 11 -6 11 C-6 8.36 -6 5.72 -6 3 C-5.34 3 -4.68 3 -4 3 C-3.67 5.64 -3.34 8.28 -3 11 C-2.34 11 -1.68 11 -1 11 C-1.01160156 10.28972656 -1.02320313 9.57945312 -1.03515625 8.84765625 C-1.04869141 7.46900391 -1.04869141 7.46900391 -1.0625 6.0625 C-1.07410156 5.14597656 -1.08570313 4.22945312 -1.09765625 3.28515625 C-1 1 -1 1 0 0 Z " fill="#D81E1F" transform="translate(190,221)"/>
<path d="M0 0 C0.33 0 0.66 0 1 0 C4.56807119 18.96599743 5.06794917 36.08887916 1 55 C0.67 55 0.34 55 0 55 C0.10828125 54.03126953 0.10828125 54.03126953 0.21875 53.04296875 C1.80362403 36.95209494 1.31354581 20.7245608 -0.625 4.6875 C-0.74875 3.470625 -0.8725 2.25375 -1 1 C-0.67 0.67 -0.34 0.34 0 0 Z " fill="#D62428" transform="translate(356,222)"/>
<path d="M0 0 C1.70736328 0.01353516 1.70736328 0.01353516 3.44921875 0.02734375 C6.21637881 0.0505972 8.9830676 0.08327132 11.75 0.125 C11.75 0.455 11.75 0.785 11.75 1.125 C10.84459473 1.14687378 10.84459473 1.14687378 9.92089844 1.16918945 C-5.063086 1.45760763 -5.063086 1.45760763 -19.69921875 4.3671875 C-23.1503381 5.39248176 -26.64711318 5.98657124 -30.19140625 6.59765625 C-32.53743516 7.07765983 -32.53743516 7.07765983 -35.25 9.125 C-38.4375 9.25 -38.4375 9.25 -41.25 9.125 C-41.25 9.785 -41.25 10.445 -41.25 11.125 C-44.25 13.125 -44.25 13.125 -47.25 14.125 C-48.24 13.465 -49.23 12.805 -50.25 12.125 C-33.54003073 4.039531 -18.63836318 -0.28606697 0 0 Z " fill="#D12D2E" transform="translate(249.25,139.875)"/>
<path d="M0 0 C0.33 0 0.66 0 1 0 C1.05888242 4.10410468 1.09388921 8.20809827 1.125 12.3125 C1.15013672 14.03436523 1.15013672 14.03436523 1.17578125 15.79101562 C1.21245833 22.26452049 0.82271529 28.24524008 -0.60351562 34.56835938 C-1.24893984 38.52674928 -0.64554268 42.06218968 0 46 C2.31 46 4.62 46 7 46 C7 46.99 7 47.98 7 49 C3.65865579 49.30375856 1.59345714 49.32796316 -1.375 47.6875 C-6.14904904 39.79195735 -2.34123412 25.29789667 -1.5 16.3125 C-1.3550161 14.72465064 -1.21048156 13.13676018 -1.06640625 11.54882812 C-0.71611013 7.69872591 -0.35975892 3.84922904 0 0 Z " fill="#CF2A29" transform="translate(196,256)"/>
<path d="M0 0 C0.99 0.66 1.98 1.32 3 2 C-0.22003556 10.16112461 -10.62814855 15.84495646 -18 20 C-18.66 20 -19.32 20 -20 20 C-20 18 -20 18 -18 16 C-17.67 15.01 -17.34 14.02 -17 13 C-14.03 13.495 -14.03 13.495 -11 14 C-11 13.34 -11 12.68 -11 12 C-10.01 12 -9.02 12 -8 12 C-8.33 11.01 -8.66 10.02 -9 9 C-9.66 9.66 -10.32 10.32 -11 11 C-11.38218767 9.34385343 -11.71395102 7.67542976 -12 6 C-11 5 -11 5 -9 4 C-7.33333333 4.33333333 -5.66666667 4.66666667 -4 5 C-3.34 4.67 -2.68 4.34 -2 4 C-1.34 4.33 -0.68 4.66 0 5 C0 3.35 0 1.7 0 0 Z " fill="#E31B1F" transform="translate(324,325)"/>
<path d="M0 0 C1.8871875 0.0309375 1.8871875 0.0309375 3.8125 0.0625 C0.3772952 2.35263653 -1.172831 2.24092973 -5.1875 2.0625 C-5.1875 2.7225 -5.1875 3.3825 -5.1875 4.0625 C6.0325 4.0625 17.2525 4.0625 28.8125 4.0625 C28.8125 4.7225 28.8125 5.3825 28.8125 6.0625 C17.2625 6.0625 5.7125 6.0625 -6.1875 6.0625 C-6.5175 4.4125 -6.8475 2.7625 -7.1875 1.0625 C-4.43671116 0.14557039 -2.82801087 -0.04636083 0 0 Z " fill="#C71F20" transform="translate(172.1875,302.9375)"/>
<path d="M0 0 C0.66 0 1.32 0 2 0 C2.103125 0.928125 2.20625 1.85625 2.3125 2.8125 C2.67766927 5.95565268 2.67766927 5.95565268 4.46875 7.3984375 C8.00635478 11.09848331 7.95636124 17.7344759 8.125 22.625 C8.08375 23.40875 8.0425 24.1925 8 25 C7.34 25 6.68 25 6 25 C5.01 21.7 4.02 18.4 3 15 C2.34 15 1.68 15 1 15 C-0.44207941 12.11584117 -0.09394887 9.58278472 -0.0625 6.375 C-0.05347656 5.18648438 -0.04445312 3.99796875 -0.03515625 2.7734375 C-0.02355469 1.85820312 -0.01195312 0.94296875 0 0 Z " fill="#FAFBFB" transform="translate(138,273)"/>
<path d="M0 0 C0.66 0 1.32 0 2 0 C1.88899025 3.18814591 1.75863821 6.37522876 1.625 9.5625 C1.57859375 10.90538086 1.57859375 10.90538086 1.53125 12.27539062 C0.96418525 25.1761137 0.96418525 25.1761137 -3.625 29.4375 C-4.800625 30.2109375 -4.800625 30.2109375 -6 31 C-5.42655063 28.13275314 -5.1385485 27.1385485 -3 25 C-3 23.68 -3 22.36 -3 21 C-4.32 21.99 -5.64 22.98 -7 24 C-6.67 22.35 -6.34 20.7 -6 19 C-5.34 19 -4.68 19 -4 19 C-4 18.01 -4 17.02 -4 16 C-3.01 16 -2.02 16 -1 16 C-1.01160156 15.43152344 -1.02320313 14.86304688 -1.03515625 14.27734375 C-1.09223194 9.39329516 -0.81956772 4.81496035 0 0 Z " fill="#DD181B" transform="translate(183,272)"/>
<path d="M0 0 C0.33 0.99 0.66 1.98 1 3 C0.01 3.33 -0.98 3.66 -2 4 C-3.20882096 6.00016466 -3.20882096 6.00016466 -4 8 C-2.02 8 -0.04 8 2 8 C-1.43361902 11.63559661 -4.7973607 14.36113346 -9 17 C-9.33 15.68 -9.66 14.36 -10 13 C-11.98 13.33 -13.96 13.66 -16 14 C-12.95734333 10.84170792 -9.72289235 8.06722279 -6.3125 5.3125 C-3.06104532 2.76448375 -3.06104532 2.76448375 0 0 Z " fill="#FDE8E4" transform="translate(327,328)"/>
<path d="M0 0 C2.93439807 0.40432207 5.42563344 1.56418772 8.0625 2.875 C8.73410156 3.20242187 9.40570313 3.52984375 10.09765625 3.8671875 C12.10978174 5.06537311 13.52913797 6.17631436 15 8 C15 8.99 15 9.98 15 11 C11.0507432 10.44894091 7.65079826 9.61064629 4 8 C4 7.34 4 6.68 4 6 C2.824375 5.7834375 2.824375 5.7834375 1.625 5.5625 C-1 5 -1 5 -3 4 C-2 2 -2 2 0 0 Z " fill="#FCF2EF" transform="translate(292,141)"/>
<path d="M0 0 C4.0744433 1.35814777 5.42021951 4.1308426 7.6875 7.5625 C8.10322266 8.17802734 8.51894531 8.79355469 8.94726562 9.42773438 C9.97193162 10.94706671 10.98690678 12.47292657 12 14 C11.01 14.495 11.01 14.495 10 15 C8.5 13.6875 8.5 13.6875 7 12 C7 11.01 7 10.02 7 9 C6.01 9.33 5.02 9.66 4 10 C4.350625 10.5775 4.70125 11.155 5.0625 11.75 C6.16577711 14.39786506 5.80156509 15.33185326 5 18 C3.80008401 16.4050992 2.61538682 14.79873853 1.4375 13.1875 C0.44556641 11.84751953 0.44556641 11.84751953 -0.56640625 10.48046875 C-1.27603516 9.25263672 -1.27603516 9.25263672 -2 8 C-1.67 7.01 -1.34 6.02 -1 5 C-0.65179959 3.33637583 -0.31595508 1.67004829 0 0 Z " fill="#FDE6E0" transform="translate(338,174)"/>
<path d="M0 0 C0.66 0.66 1.32 1.32 2 2 C-0.14653455 1.91145163 -2.29226165 1.80327477 -4.4375 1.6875 C-5.63246094 1.62949219 -6.82742188 1.57148438 -8.05859375 1.51171875 C-11.24621431 1.09786514 -13.05004288 0.63292556 -15.90625 -0.53125 C-22.97122948 -3.04124645 -30.66721702 -2.31316528 -38.0625 -2.1875 C-39.61131511 -2.17242519 -41.16014441 -2.15874173 -42.70898438 -2.14648438 C-46.47301178 -2.11370138 -50.23634638 -2.06207498 -54 -2 C-54 -2.33 -54 -2.66 -54 -3 C-36.54953344 -6.22549554 -16.99641243 -5.07300327 0 0 Z " fill="#FEDBDA" transform="translate(284,137)"/>
<path d="M0 0 C0.33 0 0.66 0 1 0 C0.67 2.64 0.34 5.28 0 8 C0.99 8 1.98 8 3 8 C3.33 7.01 3.66 6.02 4 5 C4.66 5.33 5.32 5.66 6 6 C4.61214079 8.23448357 3.21517284 10.46234071 1.8125 12.6875 C1.42513672 13.31333984 1.03777344 13.93917969 0.63867188 14.58398438 C-1.886896 18.57062458 -4.5405287 21.78631707 -8 25 C-8 24.01 -8 23.02 -8 22 C-7.34 22 -6.68 22 -6 22 C-5.62875 20.9790625 -5.62875 20.9790625 -5.25 19.9375 C-3.75802092 16.43134917 -1.93164489 13.28379632 0 10 C-1.175625 10.7115625 -1.175625 10.7115625 -2.375 11.4375 C-3.88948678 12.33898023 -5.4235897 13.21179485 -7 14 C-5.23570801 9.02790438 -2.6060834 4.56561939 0 0 Z " fill="#FEE3DE" transform="translate(348,299)"/>
<path d="M0 0 C0.33 0 0.66 0 1 0 C1 2.64 1 5.28 1 8 C2.32 7.34 3.64 6.68 5 6 C3.54884678 10.57888152 1.79418096 14.97649435 -0.125 19.375 C-0.40214844 20.01566406 -0.67929687 20.65632813 -0.96484375 21.31640625 C-1.64100385 22.87856925 -2.32018707 24.43942315 -3 26 C-3.87840996 22.90279155 -3.99435406 21.09354597 -3 18 C-2.34 18 -1.68 18 -1 18 C-1.33 16.35 -1.66 14.7 -2 13 C-2.99 13.33 -3.98 13.66 -5 14 C-4.34580901 8.93001981 -2.1453591 4.58009223 0 0 Z " fill="#FDE3E0" transform="translate(279,223)"/>
<path d="M0 0 C0.66 0 1.32 0 2 0 C2.66 1.98 3.32 3.96 4 6 C4.99 6 5.98 6 7 6 C7 4.02 7 2.04 7 0 C8.90389849 2.85584773 9.69462177 4.9311762 10.625 8.1875 C10.88539063 9.08855469 11.14578125 9.98960937 11.4140625 10.91796875 C11.60742188 11.60503906 11.80078125 12.29210937 12 13 C11.34 12.67 10.68 12.34 10 12 C10 11.34 10 10.68 10 10 C9.34 10 8.68 10 8 10 C8 14.62 8 19.24 8 24 C7.67 24 7.34 24 7 24 C6.82984375 23.24976563 6.6596875 22.49953125 6.484375 21.7265625 C5.02402908 15.55893133 3.28435726 9.78177074 0.76953125 3.9609375 C0 2 0 2 0 0 Z " fill="#FDE4E2" transform="translate(350,203)"/>
<path d="M0 0 C0.88935377 3.303314 1.46274105 6.62294375 2 10 C4.31 10.66 6.62 11.32 9 12 C8.814375 12.598125 8.62875 13.19625 8.4375 13.8125 C7.77906313 16.16408762 7.77906313 16.16408762 9 19 C8.01 19 7.02 19 6 19 C4.09765625 17.0234375 4.09765625 17.0234375 2.0625 14.375 C1.36253906 13.46492188 0.66257813 12.55484375 -0.05859375 11.6171875 C-6 3.60764588 -6 3.60764588 -6 1 C-3.525 1.495 -3.525 1.495 -1 2 C-0.67 1.34 -0.34 0.68 0 0 Z " fill="#DD1818" transform="translate(161,304)"/>
<path d="M0 0 C0.33 0 0.66 0 1 0 C1.3175377 5.82152445 0.68305761 11.10676319 -0.4375 16.8125 C-2.31872525 26.49521247 -2.70487669 36.15916407 -3 46 C-3.33 46 -3.66 46 -4 46 C-4.65397514 13.96192543 -4.65397514 13.96192543 0 0 Z " fill="#D52B2A" transform="translate(144,218)"/>
<path d="M0 0 C6.23440168 1.58960332 12.16287645 3.27600901 18 6 C18 6.99 18 7.98 18 9 C16.68 9 15.36 9 14 9 C14 8.34 14 7.68 14 7 C10.7 7 7.4 7 4 7 C4 6.34 4 5.68 4 5 C2.35 4.67 0.7 4.34 -1 4 C-0.67 2.68 -0.34 1.36 0 0 Z " fill="#FAFCFB" transform="translate(209,354)"/>
<path d="M0 0 C3.34019306 0.59646305 5.50470633 1.68294159 8 4 C8 4.99 8 5.98 8 7 C8.93585938 7.11021484 8.93585938 7.11021484 9.890625 7.22265625 C12 8 12 8 13.046875 9.99609375 C13.27890625 10.80175781 13.5109375 11.60742188 13.75 12.4375 C14.11351562 13.64212891 14.11351562 13.64212891 14.484375 14.87109375 C15 17 15 17 15 19 C15.66 19 16.32 19 17 19 C17.33 20.32 17.66 21.64 18 23 C17.34 23.33 16.68 23.66 16 24 C15.72027344 23.46632812 15.44054687 22.93265625 15.15234375 22.3828125 C10.85569742 14.39740549 5.80825961 6.96991153 0 0 Z " fill="#D81817" transform="translate(192,169)"/>
<path d="M0 0 C0.33 0.66 0.66 1.32 1 2 C-0.4375 4.625 -0.4375 4.625 -2 7 C-1.34 7.66 -0.68 8.32 0 9 C-1.98 11.97 -1.98 11.97 -4 15 C-3.67 15.66 -3.34 16.32 -3 17 C-2.01 17.2165625 -2.01 17.2165625 -1 17.4375 C-0.34 17.623125 0.32 17.80875 1 18 C1.33 18.99 1.66 19.98 2 21 C-3.19822672 19.63855967 -6.09543873 17.53269829 -10 14 C-9.61328125 13.49210937 -9.2265625 12.98421875 -8.828125 12.4609375 C-5.74572807 8.38668017 -2.78428845 4.28352069 0 0 Z " fill="#DB1D21" transform="translate(349,312)"/>
<path d="M0 0 C1.31611677 0.95336021 2.62778961 1.91285774 3.9375 2.875 C4.66839844 3.40867188 5.39929688 3.94234375 6.15234375 4.4921875 C8 6 8 6 9 8 C6.83125748 7.49396008 5.00032373 7.00016187 3 6 C3 6.99 3 7.98 3 9 C3.99 9.33 4.98 9.66 6 10 C6 10.66 6 11.32 6 12 C6.66 12.33 7.32 12.66 8 13 C7.67 13.99 7.34 14.98 7 16 C5.24884832 14.41792503 3.49905722 12.83438771 1.75 11.25 C0.77546875 10.36828125 -0.1990625 9.4865625 -1.203125 8.578125 C-3.5280797 6.43501033 -5.78582907 4.25634562 -8 2 C-5.525 2.495 -5.525 2.495 -3 3 C-3 3.66 -3 4.32 -3 5 C-1.35 5.33 0.3 5.66 2 6 C1.34 5.01 0.68 4.02 0 3 C0 2.01 0 1.02 0 0 Z " fill="#FEE3DF" transform="translate(321,157)"/>
<path d="M0 0 C0.33 0 0.66 0 1 0 C0.88060501 4.25023138 0.75629836 8.50028405 0.62768555 12.75024414 C0.58470988 14.19226302 0.54301352 15.63432067 0.50268555 17.07641602 C0.28697167 24.75955833 0.01432502 32.37125304 -1 40 C-1.33 40 -1.66 40 -2 40 C-2.05001046 35.91068318 -2.08600357 31.82148859 -2.10986328 27.73193359 C-2.11982603 26.34518324 -2.13340118 24.95845335 -2.15087891 23.57177734 C-2.24983708 15.50959656 -2.07347869 7.84275197 0 0 Z " fill="#FDDEDC" transform="translate(135,224)"/>
<path d="M0 0 C0.33 0.66 0.66 1.32 1 2 C0.01 2.495 0.01 2.495 -1 3 C1.62527189 3.05382106 4.24944713 3.09358313 6.875 3.125 C7.99455078 3.15013672 7.99455078 3.15013672 9.13671875 3.17578125 C11.09194461 3.1933959 13.04742021 3.10320189 15 3 C15.66 2.34 16.32 1.68 17 1 C18.9453125 1.2421875 18.9453125 1.2421875 21.125 1.875 C21.84945312 2.07867187 22.57390625 2.28234375 23.3203125 2.4921875 C24.15175781 2.74355469 24.15175781 2.74355469 25 3 C25 3.66 25 4.32 25 5 C13.12 5 1.24 5 -11 5 C-11 4.34 -11 3.68 -11 3 C-10.37351563 2.86722656 -9.74703125 2.73445313 -9.1015625 2.59765625 C-8.28429687 2.42105469 -7.46703125 2.24445313 -6.625 2.0625 C-5.81289062 1.88847656 -5.00078125 1.71445312 -4.1640625 1.53515625 C-1.970537 1.07669307 -1.970537 1.07669307 0 0 Z " fill="#FED7D6" transform="translate(178,302)"/>
<path d="M0 0 C2 0 2 0 3.6875 1.25 C5 3 5 3 4.8125 4.875 C3.89996865 7.26162046 2.98279631 9.64128886 2 12 C1.01 11.67 0.02 11.34 -1 11 C-1.33 11.66 -1.66 12.32 -2 13 C-2.66 13 -3.32 13 -4 13 C-3.40895235 8.15340923 -2.02055843 4.39251833 0 0 Z " fill="#DE1B19" transform="translate(149,205)"/>
<path d="M0 0 C0 3 0 3 -1.375 4.6875 C-3 6 -3 6 -5 6 C-5.309375 6.639375 -5.61875 7.27875 -5.9375 7.9375 C-7 10 -7 10 -8 11 C-9.59207821 11.42339421 -11.19957573 11.78966289 -12.8125 12.125 C-13.68519531 12.31320312 -14.55789063 12.50140625 -15.45703125 12.6953125 C-18.0214931 13.00257521 -19.55210387 12.69012428 -22 12 C-20.37191406 11.20335937 -20.37191406 11.20335937 -18.7109375 10.390625 C-17.26551761 9.6773009 -15.82021111 8.96374699 -14.375 8.25 C-13.66214844 7.90195312 -12.94929688 7.55390625 -12.21484375 7.1953125 C-7.91036093 5.06281642 -3.93558712 2.7561525 0 0 Z " fill="#D92529" transform="translate(318,345)"/>
<path d="M0 0 C0.33 0 0.66 0 1 0 C1.26404456 6.86515862 0.25841946 13.25846717 -1 20 C-0.01 20.33 0.98 20.66 2 21 C1.67 22.98 1.34 24.96 1 27 C0.01 26.01 -0.98 25.02 -2 24 C-2.66 24.99 -3.32 25.98 -4 27 C-4.66 26.67 -5.32 26.34 -6 26 C-5.71125 25.38125 -5.4225 24.7625 -5.125 24.125 C-3.57942902 19.83174728 -2.81819865 15.48121104 -2 11 C-1.71769531 9.46859375 -1.71769531 9.46859375 -1.4296875 7.90625 C-0.94760795 5.2717871 -0.47115019 2.63643616 0 0 Z " fill="#E41010" transform="translate(365,269)"/>
<path d="M0 0 C0.99 0.33 1.98 0.66 3 1 C0.4897114 5.87291316 -3.09551889 9.25524766 -7 13 C-7.99 13.99 -8.98 14.98 -10 16 C-9.67 13.03 -9.34 10.06 -9 7 C-7.5459375 6.5978125 -7.5459375 6.5978125 -6.0625 6.1875 C-4.5465625 5.5996875 -4.5465625 5.5996875 -3 5 C-2.67 4.01 -2.34 3.02 -2 2 C-1.34 2 -0.68 2 0 2 C0 1.34 0 0.68 0 0 Z " fill="#D92323" transform="translate(166,163)"/>
<path d="M0 0 C0.72896484 -0.01224609 1.45792969 -0.02449219 2.20898438 -0.03710938 C6.0338391 -0.04762685 7.80606564 0.01654376 11.0625 2.1875 C9.0825 2.1875 7.1025 2.1875 5.0625 2.1875 C5.3925 3.1775 5.7225 4.1675 6.0625 5.1875 C0.7825 4.5275 -4.4975 3.8675 -9.9375 3.1875 C-9.9375 2.5275 -9.9375 1.8675 -9.9375 1.1875 C-6.79347519 -0.3845124 -3.44802603 0.00303256 0 0 Z " fill="#FCDAD3" transform="translate(161.9375,157.8125)"/>
<path d="M0 0 C3.47691793 1.15897264 4.22015595 1.8640843 6 5 C6.1875 8.25 6.1875 8.25 6 11 C7.32 11 8.64 11 10 11 C10.144375 10.38125 10.28875 9.7625 10.4375 9.125 C11 7 11 7 12 5 C12.66 5.33 13.32 5.66 14 6 C12.35 9.96 10.7 13.92 9 18 C6.44883566 16.72441783 6.31717724 15.7929431 5.2734375 13.18359375 C4.9640625 12.41982422 4.6546875 11.65605469 4.3359375 10.86914062 C4.01882812 10.06669922 3.70171875 9.26425781 3.375 8.4375 C2.88773438 7.22803711 2.88773438 7.22803711 2.390625 5.99414062 C1.58765894 3.9985338 0.79304298 1.99957093 0 0 Z " fill="#D1262A" transform="translate(243,268)"/>
<path d="M0 0 C-0.33 0.66 -0.66 1.32 -1 2 C-1.94206299 1.99476318 -2.88412598 1.98952637 -3.85473633 1.98413086 C-7.40145499 1.96693174 -10.94812833 1.95447417 -14.49487305 1.94506836 C-16.02027086 1.94008708 -17.54566401 1.93329962 -19.07104492 1.92456055 C-27.77270449 1.87601174 -36.34387026 1.9597633 -45 3 C-40.55234632 0.03489755 -36.87954247 -0.20200204 -31.69921875 -0.3515625 C-30.98522415 -0.37471527 -30.27122955 -0.39786804 -29.53559875 -0.42172241 C-28.0251862 -0.46930501 -26.51469832 -0.51454592 -25.00415039 -0.55761719 C-22.70622807 -0.62445527 -20.40886487 -0.70237308 -18.11132812 -0.78125 C-16.64064548 -0.82619596 -15.16994266 -0.87048779 -13.69921875 -0.9140625 C-13.01776291 -0.93796051 -12.33630707 -0.96185852 -11.63420105 -0.98648071 C-7.62743791 -1.09037526 -3.92888108 -0.7882896 0 0 Z " fill="#FEE0DD" transform="translate(270,139)"/>
<path d="M0 0 C0.66 0 1.32 0 2 0 C2 3.3 2 6.6 2 10 C1.34 10 0.68 10 0 10 C-0.66 11.65 -1.32 13.3 -2 15 C-2.99 15 -3.98 15 -5 15 C-4.43174347 9.45949887 -2.37113483 4.96284034 0 0 Z " fill="#FBFBFA" transform="translate(144,204)"/>
<path d="M0 0 C0.66 0 1.32 0 2 0 C1.5978125 1.60875 1.5978125 1.60875 1.1875 3.25 C0.45434495 8.58203671 2.67473292 12.55556866 4.96875 17.265625 C6.0934722 20.24784297 5.90207481 21.07684062 5 24 C3.4905412 20.90034597 1.99409333 17.79458597 0.5 14.6875 C0.07074219 13.80642578 -0.35851562 12.92535156 -0.80078125 12.01757812 C-1.20683594 11.17001953 -1.61289063 10.32246094 -2.03125 9.44921875 C-2.40830078 8.66893311 -2.78535156 7.88864746 -3.17382812 7.0847168 C-4 5 -4 5 -4 2 C-2.68 2 -1.36 2 0 2 C0 1.34 0 0.68 0 0 Z " fill="#D32323" transform="translate(237,243)"/>
<path d="M0 0 C7.45071559 1.06212329 13.43657756 3.34124111 20 7 C20 7.66 20 8.32 20 9 C19.236875 8.67 18.47375 8.34 17.6875 8 C12.74825349 6.66054332 8.08536891 6.83712342 3 7 C2.67 6.34 2.34 5.68 2 5 C3.32 4.67 4.64 4.34 6 4 C4.02 3.34 2.04 2.68 0 2 C0 1.34 0 0.68 0 0 Z " fill="#DC191A" transform="translate(281,145)"/>
<path d="M0 0 C5 5 10 10 15 15 C11.71023192 16.09658936 10.28696233 15.79953138 7 15 C7.33 14.01 7.66 13.02 8 12 C7.34 12 6.68 12 6 12 C5.67 10.68 5.34 9.36 5 8 C3.68 7.67 2.36 7.34 1 7 C0.67 4.69 0.34 2.38 0 0 Z " fill="#D42223" transform="translate(155,320)"/>
<path d="M0 0 C0.66 0 1.32 0 2 0 C4.69930312 5.20579887 7.01287453 10.40626839 9.0703125 15.8984375 C9.9198878 18.16028075 9.9198878 18.16028075 12 20 C12.125 23.125 12.125 23.125 12 26 C9.79233274 23.2270271 8.18959353 20.53478765 6.73828125 17.3046875 C6.34189453 16.42425781 5.94550781 15.54382813 5.53710938 14.63671875 C5.13298828 13.72535156 4.72886719 12.81398437 4.3125 11.875 C3.68891602 10.49634766 3.68891602 10.49634766 3.05273438 9.08984375 C0 2.26254618 0 2.26254618 0 0 Z " fill="#D41F26" transform="translate(209,193)"/>
<path d="M0 0 C-1.31667565 4.60836476 -3.01719354 8.22762713 -6 12 C-8.25 12.875 -8.25 12.875 -10 13 C-10 8.29390022 -7.32063904 4.63759241 -4.4375 1.0625 C-3 0 -3 0 0 0 Z " fill="#FBFCFB" transform="translate(348,309)"/>
<path d="M0 0 C4.14903915 0.61015282 7.46163568 1.71972077 11 4 C12.375 7.1875 12.375 7.1875 13 10 C11.35 9.67 9.7 9.34 8 9 C8 8.34 8 7.68 8 7 C7.236875 6.9175 6.47375 6.835 5.6875 6.75 C2.45284809 5.84730645 1.64900735 4.86406539 0 2 C0 1.34 0 0.68 0 0 Z " fill="#F9FAFB" transform="translate(310,153)"/>
<path d="M0 0 C0 0.99 0 1.98 0 3 C-2 5 -2 5 -3.9453125 5.1953125 C-5.96354167 5.13020833 -7.98177083 5.06510417 -10 5 C-10 5.66 -10 6.32 -10 7 C-11.91344374 7.39111271 -13.83096553 7.76231167 -15.75 8.125 C-16.81734375 8.33382813 -17.8846875 8.54265625 -18.984375 8.7578125 C-22.13688351 9.01099324 -23.39959066 8.70415175 -26 7 C-25.04480469 6.82984375 -24.08960938 6.6596875 -23.10546875 6.484375 C-15.07068176 4.97835311 -7.59790543 3.11182405 0 0 Z " fill="#D52B2F" transform="translate(294,358)"/>
<path d="M0 0 C2.31 1.98 4.62 3.96 7 6 C6.34 6.66 5.68 7.32 5 8 C5 7.34 5 6.68 5 6 C4.01 6 3.02 6 2 6 C2.66 8.31 3.32 10.62 4 13 C-3.48291572 6.84965831 -3.48291572 6.84965831 -6 3 C-3.03 3.495 -3.03 3.495 0 4 C0 2.68 0 1.36 0 0 Z " fill="#FEE5E5" transform="translate(167,323)"/>
<path d="M0 0 C4.88049925 3.9419417 9.0580583 8.11950075 13 13 C11.125 14.0625 11.125 14.0625 9 15 C8.34 14.67 7.68 14.34 7 14 C6.87625 13.030625 6.7525 12.06125 6.625 11.0625 C6.34259761 7.92836748 6.34259761 7.92836748 4.125 6.625 C1.88948486 5.85891684 1.88948486 5.85891684 -1 6 C-0.67 4.02 -0.34 2.04 0 0 Z " fill="#D81E1E" transform="translate(323,168)"/>
<path d="M0 0 C0.66 0 1.32 0 2 0 C2.0825 0.61875 2.165 1.2375 2.25 1.875 C2.80607909 4.17381462 2.80607909 4.17381462 5 5.1875 C5.66 5.455625 6.32 5.72375 7 6 C7.33 6.33 7.66 6.66 8 7 C8 5.35 8 3.7 8 2 C8.66 2 9.32 2 10 2 C10.33 3.65 10.66 5.3 11 7 C10.01 7.495 10.01 7.495 9 8 C9.99 8.33 10.98 8.66 12 9 C12 10.65 12 12.3 12 14 C7.33333333 10 2.66666667 6 -2 2 C-1.34 1.34 -0.68 0.68 0 0 Z " fill="#DD2323" transform="translate(324,156)"/>
<path d="M0 0 C4.86896303 0.59619955 9.32790951 1.56976822 14 3 C12.68 3.33 11.36 3.66 10 4 C10 4.66 10 5.32 10 6 C4.25 7.125 4.25 7.125 2 6 C2 5.01 2 4.02 2 3 C1.01 2.67 0.02 2.34 -1 2 C-0.67 1.34 -0.34 0.68 0 0 Z " fill="#FEF3F0" transform="translate(193,348)"/>
<path d="M0 0 C2.38662046 0.91253135 4.76628886 1.82970369 7.125 2.8125 C7.125 3.1425 7.125 3.4725 7.125 3.8125 C6.361875 3.73 5.59875 3.6475 4.8125 3.5625 C1.97916667 3.52083333 1.97916667 3.52083333 0.3125 5.8125 C-0.079375 6.4725 -0.47125 7.1325 -0.875 7.8125 C-1.6175 7.626875 -2.36 7.44125 -3.125 7.25 C-5.82490963 6.82046892 -7.32131077 6.96127026 -9.875 7.8125 C-8.20833333 6.14583333 -6.54166667 4.47916667 -4.875 2.8125 C-4.359375 2.19375 -3.84375 1.575 -3.3125 0.9375 C-1.875 -0.1875 -1.875 -0.1875 0 0 Z " fill="#DA1C1F" transform="translate(333.875,333.1875)"/>
<path d="M0 0 C0.33 1.32 0.66 2.64 1 4 C2.28062485 5.7074998 3.6072711 7.38263741 5 9 C4.34 9 3.68 9 3 9 C2.67 10.65 2.34 12.3 2 14 C1.34 14 0.68 14 0 14 C-0.33 12.68 -0.66 11.36 -1 10 C-1.99 11.485 -1.99 11.485 -3 13 C-3.66 12.67 -4.32 12.34 -5 12 C-3.35 8.04 -1.7 4.08 0 0 Z " fill="#FDE4E0" transform="translate(291,196)"/>
<path d="M0 0 C0.66 0 1.32 0 2 0 C3.5056904 5.80766296 4.21824777 10.9981863 4 17 C3.01 16.67 2.02 16.34 1 16 C1 12.7 1 9.4 1 6 C0.34 6 -0.32 6 -1 6 C-1.33 7.32 -1.66 8.64 -2 10 C-2.66 10 -3.32 10 -4 10 C-3.52449439 8.51965236 -3.04448784 7.04074979 -2.5625 5.5625 C-2.29566406 4.73878906 -2.02882813 3.91507813 -1.75390625 3.06640625 C-1 1 -1 1 0 0 Z " fill="#FEDCDB" transform="translate(301,175)"/>
<path d="M0 0 C2.39521208 3.11009076 4.56495939 6.32327016 6.6875 9.625 C7.31011719 10.58664062 7.93273437 11.54828125 8.57421875 12.5390625 C10 15 10 15 10 17 C9.01 16.67 8.02 16.34 7 16 C6.67 15.01 6.34 14.02 6 13 C3.99983534 11.79117904 3.99983534 11.79117904 2 11 C2.33 12.65 2.66 14.3 3 16 C2.34 16 1.68 16 1 16 C1.01740234 15.02160156 1.01740234 15.02160156 1.03515625 14.0234375 C1.08470994 9.2238086 0.99413751 4.72215315 0 0 Z " fill="#D62523" transform="translate(145,303)"/>
<path d="M0 0 C0.66 0 1.32 0 2 0 C2.66 5.61 3.32 11.22 4 17 C1.23776722 14.23776722 1.42143709 11.79293383 1 8 C-1.51083114 9.25541557 -1.87125446 10.50063488 -3 13 C-4.23593891 9.29218328 -3.5678132 8.32489747 -2.0625 4.8125 C-1.68222656 3.91144531 -1.30195313 3.01039063 -0.91015625 2.08203125 C-0.60980469 1.39496094 -0.30945313 0.70789063 0 0 Z " fill="#D6383B" transform="translate(294,205)"/>
<path d="M0 0 C2.06547922 3.09821883 3.56243611 6.18449352 5.125 9.5625 C5.66382813 10.71878906 6.20265625 11.87507812 6.7578125 13.06640625 C8 16 8 16 8 18 C5.53199953 16.84826645 3.95216435 15.95216435 2 14 C0.90341064 10.71023192 1.20046862 9.28696233 2 6 C1.34 6 0.68 6 0 6 C0 4.02 0 2.04 0 0 Z " fill="#FCE0DB" transform="translate(209,195)"/>
<path d="M0 0 C0.33 0.66 0.66 1.32 1 2 C0.360625 2.9075 -0.27875 3.815 -0.9375 4.75 C-2.61428953 7.39221381 -3.53689998 8.9898499 -4 12 C-4.99 12 -5.98 12 -7 12 C-7.4021875 13.3303125 -7.4021875 13.3303125 -7.8125 14.6875 C-8.9250635 17.7909666 -10.10195778 20.31110685 -12 23 C-12.66 23 -13.32 23 -14 23 C-10.79448646 14.48724469 -5.59915023 7.10814107 0 0 Z " fill="#FDDBD6" transform="translate(159,175)"/>
<path d="M0 0 C2.31 0 4.62 0 7 0 C7 3.63 7 7.26 7 11 C6.67 11 6.34 11 6 11 C5.67 8.03 5.34 5.06 5 2 C2.2447914 4.7552086 1.2659514 6.22928805 -0.1875 9.6875 C-0.53167969 10.49574219 -0.87585938 11.30398437 -1.23046875 12.13671875 C-1.48441406 12.75160156 -1.73835938 13.36648437 -2 14 C-3.05056979 10.77175904 -3.12177459 10.25413826 -1.5625 7 C-1.046875 6.01 -0.53125 5.02 0 4 C0 2.68 0 1.36 0 0 Z " fill="#D5252A" transform="translate(298,173)"/>
<path d="M0 0 C2.9375 0.75 2.9375 0.75 6 2 C6.75 4.0625 6.75 4.0625 7 6 C7.66 6.33 8.32 6.66 9 7 C10.125 9.0625 10.125 9.0625 11 11 C8.03 10.505 8.03 10.505 5 10 C5 9.01 5 8.02 5 7 C4.01 6.67 3.02 6.34 2 6 C2 5.34 2 4.68 2 4 C1.34 3.67 0.68 3.34 0 3 C0 2.01 0 1.02 0 0 Z " fill="#F7FBFA" transform="translate(324,163)"/>
<path d="M0 0 C0.33 0 0.66 0 1 0 C1.19335938 0.9178125 1.38671875 1.835625 1.5859375 2.78125 C2.95178397 9.2183086 4.34408272 15.6310874 6 22 C3 21 3 21 2.0859375 19.25 C-2.0516934 6.15508021 -2.0516934 6.15508021 0 0 Z " fill="#D82B30" transform="translate(306,285)"/>
<path d="M0 0 C2.70329311 3.29590691 4.41900085 6.75613519 6.1875 10.625 C6.71730469 11.77226562 7.24710938 12.91953125 7.79296875 14.1015625 C9 17 9 17 9 19 C8.01 18.67 7.02 18.34 6 18 C6 16.68 6 15.36 6 14 C5.34 14 4.68 14 4 14 C3.34 12.35 2.68 10.7 2 9 C1.01 9 0.02 9 -1 9 C-0.67 6.03 -0.34 3.06 0 0 Z " fill="#DA272A" transform="translate(235,281)"/>
<path d="M0 0 C0.66 0.99 1.32 1.98 2 3 C1.67 3.66 1.34 4.32 1 5 C1.66 5 2.32 5 3 5 C3.25394531 5.73605469 3.50789062 6.47210938 3.76953125 7.23046875 C4.11371094 8.20628906 4.45789063 9.18210938 4.8125 10.1875 C5.14894531 11.15042969 5.48539063 12.11335937 5.83203125 13.10546875 C6.91082273 16.04565422 6.91082273 16.04565422 8.69921875 18.61328125 C10 21 10 21 9.58129883 23.14916992 C9.38947021 23.75994385 9.1976416 24.37071777 9 25 C7.2931993 21.59264572 5.61302576 18.17282773 3.9375 14.75 C3.20950195 13.29787109 3.20950195 13.29787109 2.46679688 11.81640625 C2.01240234 10.88183594 1.55800781 9.94726562 1.08984375 8.984375 C0.45357056 7.69611816 0.45357056 7.69611816 -0.19555664 6.38183594 C-1.08514104 3.74791017 -0.95849676 2.56638156 0 0 Z " fill="#FEE0DA" transform="translate(211,223)"/>
<path d="M0 0 C0.99 0.33 1.98 0.66 3 1 C2 3 2 3 0 4 C-0.66 3.67 -1.32 3.34 -2 3 C-2.268125 3.598125 -2.53625 4.19625 -2.8125 4.8125 C-4.03585242 7.06604393 -4.97960332 8.42858036 -7 10 C-9.6875 10.6875 -9.6875 10.6875 -12 11 C-12.33 10.34 -12.66 9.68 -13 9 C-12.34 8.62875 -11.68 8.2575 -11 7.875 C-7.74525743 5.8407859 -4.83626733 3.53547136 -1.8671875 1.109375 C-1.25101563 0.74328125 -0.63484375 0.3771875 0 0 Z " fill="#FDEAE4" transform="translate(186,151)"/>
<path d="M0 0 C0.66 0 1.32 0 2 0 C2.144375 0.928125 2.28875 1.85625 2.4375 2.8125 C2.92100111 6.00725111 2.92100111 6.00725111 4 9 C3.29296875 11.5234375 3.29296875 11.5234375 2.1875 14.375 C1.65189453 15.77878906 1.65189453 15.77878906 1.10546875 17.2109375 C0.07553797 19.80942011 -0.95784291 22.40639639 -2 25 C-3.46726798 21.18510326 -2.43336419 18.70988378 -1 15 C-0.34 15 0.32 15 1 15 C0.67 10.05 0.34 5.1 0 0 Z " fill="#D42021" transform="translate(352,272)"/>
<path d="M0 0 C0.66 0 1.32 0 2 0 C2.66 1.65 3.32 3.3 4 5 C4.66 5 5.32 5 6 5 C6 7.31 6 9.62 6 12 C6.66 12 7.32 12 8 12 C8.66 14.31 9.32 16.62 10 19 C9.34 19.33 8.68 19.66 8 20 C6.66065284 17.04435292 5.32955753 14.0850622 4 11.125 C3.6184375 10.28324219 3.236875 9.44148437 2.84375 8.57421875 C2.4828125 7.76855469 2.121875 6.96289062 1.75 6.1328125 C1.41484375 5.38918457 1.0796875 4.64555664 0.734375 3.87939453 C0 2 0 2 0 0 Z " fill="#D12429" transform="translate(221,219)"/>
<path d="M0 0 C7.50892857 9.0625 7.50892857 9.0625 7 15 C6.896875 14.360625 6.79375 13.72125 6.6875 13.0625 C6.460625 12.381875 6.23375 11.70125 6 11 C5.01 10.67 4.02 10.34 3 10 C3 9.01 3 8.02 3 7 C2.34 7 1.68 7 1 7 C1 7.99 1 8.98 1 10 C0.34 10 -0.32 10 -1 10 C-2.46726798 6.18510326 -1.43336419 3.70988378 0 0 Z " fill="#DD262A" transform="translate(188,182)"/>
<path d="M0 0 C0.7528125 0.144375 1.505625 0.28875 2.28125 0.4375 C11.28051081 2.01018635 19.90688141 2.21011057 29 2 C29 2.99 29 3.98 29 5 C24.72754815 4.75161719 20.45765479 4.47247617 16.1875 4.1875 C14.36508789 4.08211914 14.36508789 4.08211914 12.50585938 3.97460938 C11.34248047 3.89404297 10.17910156 3.81347656 8.98046875 3.73046875 C7.90692139 3.66239014 6.83337402 3.59431152 5.72729492 3.52416992 C2.77753031 2.95724264 1.80945896 2.33664579 0 0 Z " fill="#CA2022" transform="translate(341,337)"/>
<path d="M0 0 C0.33 0 0.66 0 1 0 C1 2.31 1 4.62 1 7 C2.32 7 3.64 7 5 7 C4.25 12.75 4.25 12.75 2 15 C1.67 13.02 1.34 11.04 1 9 C-0.98 9.99 -0.98 9.99 -3 11 C-2.01 7.37 -1.02 3.74 0 0 Z " fill="#FDE6E1" transform="translate(355,281)"/>
<path d="M0 0 C0.99 0.33 1.98 0.66 3 1 C2.45276317 4.37462715 1.9451 6.08235 0 9 C-0.66 9 -1.32 9 -2 9 C-4 6 -4 6 -3.8125 3.9375 C-3 2 -3 2 0 0 Z " fill="#FEF7F2" transform="translate(151,192)"/>
<path d="M0 0 C0.33 0 0.66 0 1 0 C1 1.98 1 3.96 1 6 C0.34 6 -0.32 6 -1 6 C-1.103125 7.0725 -1.20625 8.145 -1.3125 9.25 C-1.97202199 12.84739269 -2.45776191 14.45776191 -5 17 C-5.66 17 -6.32 17 -7 17 C-5.1668733 11.00067626 -2.92678249 5.55079437 0 0 Z " fill="#D72A2E" transform="translate(264,274)"/>
<path d="M0 0 C0.33 0 0.66 0 1 0 C1.05410136 3.06273831 1.09372225 6.12451452 1.125 9.1875 C1.15013672 10.48397461 1.15013672 10.48397461 1.17578125 11.80664062 C1.21038233 16.32208103 1.15567916 19.90081483 -1 24 C-1.33 24 -1.66 24 -2 24 C-1.03644647 7.1070615 -1.03644647 7.1070615 0 0 Z " fill="#FAC7C5" transform="translate(190,229)"/>
<path d="M0 0 C2.15377564 2.62198774 3.40072174 4.64404172 4 8 C2.68 7.67 1.36 7.34 0 7 C0.02320313 7.67546875 0.04640625 8.3509375 0.0703125 9.046875 C0.08835938 9.93890625 0.10640625 10.8309375 0.125 11.75 C0.14820313 12.63171875 0.17140625 13.5134375 0.1953125 14.421875 C-0.00860498 17.1135858 -0.63448279 18.69904974 -2 21 C-1.85845864 18.43719792 -1.71191438 15.87484515 -1.5625 13.3125 C-1.52318359 12.59126953 -1.48386719 11.87003906 -1.44335938 11.12695312 C-1.21814322 7.33292718 -0.87160695 3.71348508 0 0 Z " fill="#CA3637" transform="translate(201,207)"/>
<path d="M0 0 C1.65 0 3.3 0 5 0 C5.12375 0.78375 5.2475 1.5675 5.375 2.375 C5.79117993 5.14057822 5.79117993 5.14057822 8 7 C6.1875 7.625 6.1875 7.625 4 8 C1 6 1 6 0.3125 2.875 C0.209375 1.92625 0.10625 0.9775 0 0 Z " fill="#F40A0A" transform="translate(161,308)"/>
<path d="M0 0 C2.44168979 3.03056792 4.13027389 6.09018596 5.75 9.625 C6.19859375 10.58664063 6.6471875 11.54828125 7.109375 12.5390625 C7.40328125 13.35117188 7.6971875 14.16328125 8 15 C7.67 15.66 7.34 16.32 7 17 C2.15797766 12.92250751 1.05454638 10.03967474 0 4 C0 2.68 0 1.36 0 0 Z " fill="#D0282B" transform="translate(206,218)"/>
<path d="M0 0 C0.99 0.495 0.99 0.495 2 1 C2 3.64 2 6.28 2 9 C2.66 9 3.32 9 4 9 C4 13.95 4 18.9 4 24 C3.67 24 3.34 24 3 24 C2.01 16.08 1.02 8.16 0 0 Z " fill="#FEE4DA" transform="translate(297,216)"/>
<path d="M0 0 C0.66 0 1.32 0 2 0 C1.34580901 5.06998019 -0.8546409 9.41990777 -3 14 C-3.33 14 -3.66 14 -4 14 C-4.41733821 7.94859592 -4.10415132 4.82841331 0 0 Z " fill="#D62226" transform="translate(287,200)"/>
<path d="M0 0 C1.98 0 3.96 0 6 0 C6.33 0.99 6.66 1.98 7 3 C8.0828125 3.185625 8.0828125 3.185625 9.1875 3.375 C11.95721894 3.9904931 14.3970354 4.88444374 17 6 C17 6.99 17 7.98 17 9 C13.10391502 7.51095825 9.40902982 5.75621287 5.6875 3.875 C4.61886719 3.33617187 3.55023438 2.79734375 2.44921875 2.2421875 C1.64097656 1.83226562 0.83273437 1.42234375 0 1 C0 0.67 0 0.34 0 0 Z " fill="#D12829" transform="translate(295,141)"/>
<path d="M0 0 C5.33266322 0.41020486 7.39250014 1.15975821 11 5 C14.13350717 6.26784124 14.13350717 6.26784124 17 7 C15.421875 8.23828125 15.421875 8.23828125 13 9 C10.52391283 7.8367175 8.4957363 6.69535152 6.25 5.1875 C5.64800781 4.80529297 5.04601562 4.42308594 4.42578125 4.02929688 C2.92352297 3.06015293 1.45801225 2.03451447 0 1 C0 0.67 0 0.34 0 0 Z " fill="#D5272B" transform="translate(184,338)"/>
<path d="M0 0 C3 1 3 1 4 3 C4.66 3 5.32 3 6 3 C6 4.98 6 6.96 6 9 C5.01 9.33 4.02 9.66 3 10 C1.5393715 7.35261084 1 6.10551666 1 3 C0.34 2.67 -0.32 2.34 -1 2 C-0.67 1.34 -0.34 0.68 0 0 Z " fill="#FEFAF9" transform="translate(351,200)"/>
<path d="M0 0 C5.28 0.99 10.56 1.98 16 3 C16 3.33 16 3.66 16 4 C9.4 4 2.8 4 -4 4 C-2.68 3.67 -1.36 3.34 0 3 C0 2.01 0 1.02 0 0 Z " fill="#FFEAEB" transform="translate(352,334)"/>
<path d="M0 0 C2.475 0.495 2.475 0.495 5 1 C4.34 4.63 3.68 8.26 3 12 C0.50494038 9.50494038 0.64051624 8.32671112 0.375 4.875 C0.30023438 3.96492188 0.22546875 3.05484375 0.1484375 2.1171875 C0.09945313 1.41851562 0.05046875 0.71984375 0 0 Z " fill="#D81E22" transform="translate(321,287)"/>
<path d="M0 0 C1.0625 1.8125 1.0625 1.8125 2 4 C1.67 4.99 1.34 5.98 1 7 C0.34 7 -0.32 7 -1 7 C-1 8.98 -1 10.96 -1 13 C-2.32 13.33 -3.64 13.66 -5 14 C-3.45730076 9.27934033 -1.92205381 4.58335908 0 0 Z " fill="#DB2325" transform="translate(284,228)"/>
<path d="M0 0 C0.66 0.33 1.32 0.66 2 1 C-0.31 6.28 -2.62 11.56 -5 17 C-5.33 17 -5.66 17 -6 17 C-5.57664615 10.50857435 -3.08900201 5.66507011 0 0 Z " fill="#CE262B" transform="translate(281,215)"/>
<path d="M0 0 C2.31242092 2.16323247 4.0156396 4.37647804 5.6875 7.0625 C6.12449219 7.75472656 6.56148437 8.44695312 7.01171875 9.16015625 C8 11 8 11 8 13 C6.68 13 5.36 13 4 13 C3.32942113 11.2097939 2.6636531 9.41778511 2 7.625 C1.62875 6.62726563 1.2575 5.62953125 0.875 4.6015625 C0 2 0 2 0 0 Z " fill="#FDE2D9" transform="translate(199,178)"/>
<path d="M0 0 C5.11476062 -0.20876574 9.13056086 0.46702842 14 2 C15.66246041 2.35371498 17.32774271 2.69595322 19 3 C19 3.33 19 3.66 19 4 C12.02330843 4.39325819 6.48343811 3.63096039 0 1 C0 0.67 0 0.34 0 0 Z " fill="#CF3839" transform="translate(351,333)"/>
<path d="M0 0 C0.33 0 0.66 0 1 0 C1.28307925 7.24997422 0.50974035 13.90961228 -1 21 C-1.66 21 -2.32 21 -3 21 C-2.17321655 13.97234063 -1.09751783 6.99001647 0 0 Z " fill="#FDD4D0" transform="translate(359,260)"/>
<path d="M0 0 C0.33 0.66 0.66 1.32 1 2 C1.66 2 2.32 2 3 2 C3 2.66 3 3.32 3 4 C3.66 4.33 4.32 4.66 5 5 C4.01 5.99 3.02 6.98 2 8 C2.66 8.33 3.32 8.66 4 9 C3.34 9.66 2.68 10.32 2 11 C1.32845067 9.71086513 0.66291141 8.41859796 0 7.125 C-0.37125 6.40570313 -0.7425 5.68640625 -1.125 4.9453125 C-2 3 -2 3 -2 1 C-1.34 0.67 -0.68 0.34 0 0 Z " fill="#DE1A1D" transform="translate(355,192)"/>
<path d="M0 0 C0 0.66 0 1.32 0 2 C-1.32 2 -2.64 2 -4 2 C-4 2.66 -4 3.32 -4 4 C-5.98 4.33 -7.96 4.66 -10 5 C-9.01906046 2.54765115 -8.31296172 1.2190732 -6.125 -0.3125 C-3.64990694 -1.1132654 -2.41712366 -0.86325845 0 0 Z " fill="#FAFDFB" transform="translate(298,353)"/>
<path d="M0 0 C2.31 0.33 4.62 0.66 7 1 C6.814375 1.598125 6.62875 2.19625 6.4375 2.8125 C5.77906313 5.16408762 5.77906313 5.16408762 7 8 C6.01 8 5.02 8 4 8 C1.53721199 5.53721199 1.00228745 3.29323018 0 0 Z " fill="#DF1615" transform="translate(163,315)"/>
<path d="M0 0 C0.66 0 1.32 0 2 0 C2.433125 0.969375 2.86625 1.93875 3.3125 2.9375 C4.7014861 6.27731765 4.7014861 6.27731765 8 7 C8 7.66 8 8.32 8 9 C4.28400809 9.20086443 3.22791555 9.1519437 0 7 C-0.1875 3.375 -0.1875 3.375 0 0 Z " fill="#F8FAFA" transform="translate(154,310)"/>
<path d="M0 0 C2 3 2 3 1.875 4.8125 C0.6636371 7.84090724 -1.12748766 10.34224055 -3 13 C-3.66 12.67 -4.32 12.34 -5 12 C-3.35 8.04 -1.7 4.08 0 0 Z " fill="#FDDEDF" transform="translate(257,272)"/>
<path d="M0 0 C2.64 0.33 5.28 0.66 8 1 C2.64766505 4.5682233 -3.63026469 5.32665309 -10 5 C-6.3558226 2.5705484 -4.28758728 2.83820425 0 3 C0 2.01 0 1.02 0 0 Z " fill="#D42729" transform="translate(272,354)"/>
<path d="M0 0 C6.56384615 -0.37153846 6.56384615 -0.37153846 8.6875 1.4375 C9.120625 1.953125 9.55375 2.46875 10 3 C12.10332891 3.71447643 12.10332891 3.71447643 14 4 C14 4.66 14 5.32 14 6 C12.41375765 5.57316761 10.8310902 5.13303842 9.25 4.6875 C8.36828125 4.44386719 7.4865625 4.20023437 6.578125 3.94921875 C3.94227495 2.97874669 2.14592674 1.78994356 0 0 Z " fill="#FEE0DB" transform="translate(199,355)"/>
<path d="M0 0 C0.33 0 0.66 0 1 0 C1.29883729 7.47093223 0.15925507 14.63044989 -1 22 C-1.33 22 -1.66 22 -2 22 C-3.47957572 14.06409385 -2.11536025 7.73241853 0 0 Z " fill="#D62426" transform="translate(365,269)"/>
<path d="M0 0 C2.33697029 2.33697029 3.27094054 4.49097899 4.625 7.5 C5.29402344 8.96953125 5.29402344 8.96953125 5.9765625 10.46875 C7 13 7 13 7 15 C6.01 15 5.02 15 4 15 C4 13.35 4 11.7 4 10 C3.01 9.67 2.02 9.34 1 9 C0.67 6.03 0.34 3.06 0 0 Z " fill="#FDDCD6" transform="translate(225,230)"/>
<path d="M0 0 C0.66 0 1.32 0 2 0 C0.33333333 5 -1.33333333 10 -3 15 C-4.57359759 10.27920724 -3.52260317 7.10791873 -1.4375 2.6875 C-0.7259375 1.3571875 -0.7259375 1.3571875 0 0 Z " fill="#D02427" transform="translate(142,198)"/>
<path d="M0 0 C1.75215106 0.93347358 3.50163563 1.8719532 5.25 2.8125 C6.71179688 3.59560547 6.71179688 3.59560547 8.203125 4.39453125 C11 6 11 6 15 9 C11.7 8.34 8.4 7.68 5 7 C5 6.01 5 5.02 5 4 C2.525 3.01 2.525 3.01 0 2 C0 1.34 0 0.68 0 0 Z " fill="#D1252B" transform="translate(182,346)"/>
<path d="M0 0 C2.475 0.495 2.475 0.495 5 1 C5.33 2.98 5.66 4.96 6 7 C4.68 7 3.36 7 2 7 C0 4 0 4 0 0 Z " fill="#F6FCFA" transform="translate(169,329)"/>
<path d="M0 0 C1.60080151 4.00200378 0.29279692 7.04556236 -1 11 C-0.34 11.33 0.32 11.66 1 12 C0.34 12.66 -0.32 13.32 -1 14 C-1.99 13.67 -2.98 13.34 -4 13 C-3.52343588 11.20763933 -3.04366502 9.41613103 -2.5625 7.625 C-2.29566406 6.62726563 -2.02882812 5.62953125 -1.75390625 4.6015625 C-1 2 -1 2 0 0 Z " fill="#D7282A" transform="translate(255,294)"/>
<path d="M0 0 C0.99 0 1.98 0 3 0 C3.185625 0.9590625 3.185625 0.9590625 3.375 1.9375 C3.684375 2.9584375 3.684375 2.9584375 4 4 C4.66 4.33 5.32 4.66 6 5 C6 7.31 6 9.62 6 12 C3.32098068 9.68118495 2.33795597 7.68185532 1.3125 4.3125 C1.06113281 3.50425781 0.80976563 2.69601562 0.55078125 1.86328125 C0.36902344 1.24839844 0.18726563 0.63351562 0 0 Z " fill="#FDE5E0" transform="translate(241,292)"/>
<path d="M0 0 C0.33 0 0.66 0 1 0 C1.82200425 6.24723226 -1.07448606 10.71317837 -4 16 C-4.66 16 -5.32 16 -6 16 C-4.25192871 10.53262809 -2.34205919 5.24175152 0 0 Z " fill="#D6292C" transform="translate(276,246)"/>
<path d="M0 0 C0.66 0 1.32 0 2 0 C0.25192871 5.46737191 -1.65794081 10.75824848 -4 16 C-4.33 16 -4.66 16 -5 16 C-5 14.35 -5 12.7 -5 11 C-4.34 11 -3.68 11 -3 11 C-2.87625 9.9275 -2.7525 8.855 -2.625 7.75 C-2.10356064 4.62136385 -1.59911746 2.66519576 0 0 Z " fill="#FEE2DB" transform="translate(259,280)"/>
<path d="M0 0 C2.58548628 2.58548628 2.97641847 4.29538385 3.09765625 7.91796875 C3.08605469 8.99691406 3.07445312 10.07585937 3.0625 11.1875 C3.05347656 12.27417969 3.04445313 13.36085938 3.03515625 14.48046875 C3.02355469 15.31191406 3.01195312 16.14335937 3 17 C2.67 17 2.34 17 2 17 C-0.29612756 5.47835991 -0.29612756 5.47835991 0 0 Z " fill="#D0272A" transform="translate(316,256)"/>
<path d="M0 0 C1.88856668 2.83285002 3.50546052 5.6948727 5.125 8.6875 C5.66382813 9.68136719 6.20265625 10.67523438 6.7578125 11.69921875 C7.16773438 12.45847656 7.57765625 13.21773438 8 14 C7.34 14 6.68 14 6 14 C5.7525 13.195625 5.505 12.39125 5.25 11.5625 C4.27761141 8.828919 4.27761141 8.828919 1.875 8.1875 C1.25625 8.125625 0.6375 8.06375 0 8 C0 5.36 0 2.72 0 0 Z " fill="#D62226" transform="translate(312,307)"/>
<path d="M0 0 C2.89932357 2.39509338 3.50168276 4.31245243 4 8 C5.65 8 7.3 8 9 8 C8.01 9.485 8.01 9.485 7 11 C5.35 10.67 3.7 10.34 2 10 C2 8.02 2 6.04 2 4 C1.34 4 0.68 4 0 4 C0 2.68 0 1.36 0 0 Z " fill="#DA2E2F" transform="translate(244,301)"/>
<path d="M0 0 C1.59373901 2.39060851 2.65297076 4.30828179 3.6875 6.9375 C3.95949219 7.60652344 4.23148438 8.27554687 4.51171875 8.96484375 C5.0787676 11.32830338 4.76024003 12.7192799 4 15 C3.67 15 3.34 15 3 15 C3 13.35 3 11.7 3 10 C2.34 10 1.68 10 1 10 C0.67 6.7 0.34 3.4 0 0 Z " fill="#FDD8D3" transform="translate(144,282)"/>
<path d="M0 0 C1.953125 0.7734375 1.953125 0.7734375 4 2 C4.75 5.625 4.75 5.625 5 9 C5.66 9 6.32 9 7 9 C7 10.65 7 12.3 7 14 C4.60926851 11.06810006 3.15892693 8.27856712 1.8125 4.75 C1.46832031 3.85796875 1.12414062 2.9659375 0.76953125 2.046875 C0.51558594 1.37140625 0.26164063 0.6959375 0 0 Z " fill="#FEE4DD" transform="translate(202,208)"/>
<path d="M0 0 C0.94314127 3.41610225 1.08065117 6.45134864 1 10 C0.34 10 -0.32 10 -1 10 C-1.66 11.32 -2.32 12.64 -3 14 C-4.07010304 11.23556715 -4.16283213 9.46148633 -3.17578125 6.6640625 C-2.16488321 4.41525773 -1.11596524 2.19840363 0 0 Z " fill="#D72B2E" transform="translate(269,262)"/>
<path d="M0 0 C7.75 0.875 7.75 0.875 10 2 C10 2.66 10 3.32 10 4 C6.05272412 4.17942163 3.4019487 4.09350689 0 2 C0 1.34 0 0.68 0 0 Z " fill="#FBFCFC" transform="translate(289,143)"/>
<path d="M0 0 C1.98 0.66 3.96 1.32 6 2 C6 4.31 6 6.62 6 9 C3.59927045 6.11912454 1.52708963 3.43595166 0 0 Z " fill="#D62225" transform="translate(347,184)"/>
<path d="M0 0 C0 3.61029169 -0.96092582 6.55806676 -2 10 C-3.65 10 -5.3 10 -7 10 C-6.02223933 8.51990357 -5.0427506 7.04094856 -4.0625 5.5625 C-3.51722656 4.73878906 -2.97195312 3.91507813 -2.41015625 3.06640625 C-1 1 -1 1 0 0 Z " fill="#D42228" transform="translate(166,178)"/>
<path d="M0 0 C-0.33 1.32 -0.66 2.64 -1 4 C-1.70125 4.12375 -2.4025 4.2475 -3.125 4.375 C-6.17656387 5.03838345 -9.05340938 5.97211955 -12 7 C-8.51013292 3.25162425 -5.32108894 0 0 0 Z " fill="#D22D2D" transform="translate(199,153)"/>
<path d="M0 0 C1.6266848 0.28211877 3.25132896 0.57602375 4.875 0.875 C5.77992188 1.03742188 6.68484375 1.19984375 7.6171875 1.3671875 C10 2 10 2 12 4 C7.06729471 5.6442351 4.45975807 4.18615592 0 2 C0 1.34 0 0.68 0 0 Z " fill="#D2262A" transform="translate(281,145)"/>
<path d="M0 0 C0.66 0 1.32 0 2 0 C1.1875 2.9375 1.1875 2.9375 0 6 C-0.99 6.33 -1.98 6.66 -3 7 C-3.33 5.35 -3.66 3.7 -4 2 C-2.68 2 -1.36 2 0 2 C0 1.34 0 0.68 0 0 Z " fill="#E21A1C" transform="translate(237,243)"/>
<path d="M0 0 C2.34914492 2.34914492 2.73140357 3.95679446 3.625 7.125 C3.88539063 8.03507813 4.14578125 8.94515625 4.4140625 9.8828125 C4.70410156 10.93082031 4.70410156 10.93082031 5 12 C4.01 12.495 4.01 12.495 3 13 C2.67 11.02 2.34 9.04 2 7 C1.34 7 0.68 7 0 7 C0 4.69 0 2.38 0 0 Z " fill="#D52C2A" transform="translate(351,208)"/>
<path d="M0 0 C-0.99 0 -1.98 0 -3 0 C-3 0.66 -3 1.32 -3 2 C-6 4 -6 4 -9 5 C-9.99 4.34 -10.98 3.68 -12 3 C-10.75823305 2.29773859 -9.50614401 1.61370891 -8.25 0.9375 C-7.20585937 0.36322266 -7.20585937 0.36322266 -6.140625 -0.22265625 C-3.63859372 -1.1312406 -2.4667645 -0.88336837 0 0 Z " fill="#D61C21" transform="translate(211,149)"/>
<path d="M0 0 C1.98 0.99 3.96 1.98 6 3 C5.67 4.32 5.34 5.64 5 7 C4.34 7 3.68 7 3 7 C0.70351351 4.4385343 0 3.52032428 0 0 Z " fill="#F10A04" transform="translate(324,173)"/>
<path d="M0 0 C0.66 0.33 1.32 0.66 2 1 C1.67 1.99 1.34 2.98 1 4 C3.475 4.99 3.475 4.99 6 6 C6 6.99 6 7.98 6 9 C3.36 7.35 0.72 5.7 -2 4 C-1.34 2.68 -0.68 1.36 0 0 Z " fill="#CD3230" transform="translate(185,160)"/>
<path d="M0 0 C3.63 0 7.26 0 11 0 C11 0.66 11 1.32 11 2 C6.58937864 3.0257259 4.07369424 3.03684712 0 1 C0 0.67 0 0.34 0 0 Z " fill="#E3101F" transform="translate(153,162)"/>
<path d="M0 0 C2.31 0.33 4.62 0.66 7 1 C7.33 2.98 7.66 4.96 8 7 C6.66382648 6.02471263 5.3311249 5.04466681 4 4.0625 C3.2575 3.51722656 2.515 2.97195313 1.75 2.41015625 C1.1725 1.94480469 0.595 1.47945313 0 1 C0 0.67 0 0.34 0 0 Z " fill="#CF272C" transform="translate(176,331)"/>
<path d="M0 0 C2.40072955 2.88087546 4.47291037 5.56404834 6 9 C4.68 9 3.36 9 2 9 C0.50178941 5.62902617 0 3.79557881 0 0 Z " fill="#FCDFD6" transform="translate(156,308)"/>
<path d="M0 0 C0.66 0.33 1.32 0.66 2 1 C1.19185349 2.33597652 0.37836819 3.668725 -0.4375 5 C-0.88996094 5.7425 -1.34242188 6.485 -1.80859375 7.25 C-2.20175781 7.8275 -2.59492188 8.405 -3 9 C-3.33 9 -3.66 9 -4 9 C-4 6.69 -4 4.38 -4 2 C-3.01 2 -2.02 2 -1 2 C-0.67 1.34 -0.34 0.68 0 0 Z " fill="#DD212B" transform="translate(343,305)"/>
<path d="M0 0 C0.66 0 1.32 0 2 0 C2.33 1.32 2.66 2.64 3 4 C2.34 4 1.68 4 1 4 C0.34 5.32 -0.32 6.64 -1 8 C-1.625 5.6875 -1.625 5.6875 -2 3 C-1.34 2.01 -0.68 1.02 0 0 Z " fill="#FBFBFB" transform="translate(281,225)"/>
<path d="M0 0 C2.5 1.8125 2.5 1.8125 5 4 C5 4.99 5 5.98 5 7 C4.01 7 3.02 7 2 7 C2 6.01 2 5.02 2 4 C1.34 4 0.68 4 0 4 C0 4.99 0 5.98 0 7 C-0.66 7 -1.32 7 -2 7 C-1.34 4.69 -0.68 2.38 0 0 Z " fill="#DA1C17" transform="translate(289,217)"/>
<path d="M0 0 C0.99 0.33 1.98 0.66 3 1 C1.71186658 1.83878455 0.41936744 2.67086783 -0.875 3.5 C-1.59429687 3.9640625 -2.31359375 4.428125 -3.0546875 4.90625 C-5 6 -5 6 -7 6 C-6 3 -6 3 -4.0625 1.875 C-3.381875 1.58625 -2.70125 1.2975 -2 1 C-1.34 0.67 -0.68 0.34 0 0 Z " fill="#FDE0DB" transform="translate(315,345)"/>
<path d="M0 0 C2.375 0.3125 2.375 0.3125 5 1 C5.66 1.99 6.32 2.98 7 4 C4.69 4 2.38 4 0 4 C-0.33 3.34 -0.66 2.68 -1 2 C-0.67 1.34 -0.34 0.68 0 0 Z " fill="#E31C1B" transform="translate(163,332)"/>
<path d="M0 0 C0.99 0.66 1.98 1.32 3 2 C1.95125002 4.62187494 1.35068687 5.79371361 -1.125 7.25 C-1.74375 7.4975 -2.3625 7.745 -3 8 C-2.67 6.68 -2.34 5.36 -2 4 C-1.34 4.33 -0.68 4.66 0 5 C0 3.35 0 1.7 0 0 Z " fill="#D7333A" transform="translate(324,325)"/>
<path d="M0 0 C2.93200474 2.85276137 5.64315404 5.65079784 8 9 C7.01 9.33 6.02 9.66 5 10 C4.16121545 8.71186658 3.32913217 7.41936744 2.5 6.125 C2.0359375 5.40570313 1.571875 4.68640625 1.09375 3.9453125 C0 2 0 2 0 0 Z " fill="#CF2A2A" transform="translate(328,310)"/>
<path d="M0 0 C2.1991413 4.39828259 2.51855059 7.18550592 3 12 C2.67 11.34 2.34 10.68 2 10 C1.01 9.67 0.02 9.34 -1 9 C-0.67 6.03 -0.34 3.06 0 0 Z " fill="#FDD7D6" transform="translate(141,270)"/>
<path d="M0 0 C3.3125 0.125 3.3125 0.125 7 1 C8.9375 4.0625 8.9375 4.0625 10 7 C6.42032008 5.34784004 3.22017048 3.26875648 0 1 C0 0.67 0 0.34 0 0 Z " fill="#D53233" transform="translate(312,150)"/>
<path d="M0 0 C-0.33 0.99 -0.66 1.98 -1 3 C-3.31 3.33 -5.62 3.66 -8 4 C-8 3.01 -8 2.02 -8 1 C-5.10765685 0.17361624 -3.11257569 0 0 0 Z " fill="#FBE6E0" transform="translate(224,136)"/>
<path d="M0 0 C2.1385485 2.1385485 2.42655063 3.13275314 3 6 C1.35 5.67 -0.3 5.34 -2 5 C-2 2 -2 2 0 0 Z " fill="#E01309" transform="translate(347,324)"/>
<path d="M0 0 C1.485 0.99 1.485 0.99 3 2 C3 3.32 3 4.64 3 6 C3.99 6.33 4.98 6.66 6 7 C6 7.66 6 8.32 6 9 C5.01 9 4.02 9 3 9 C2.67 7.35 2.34 5.7 2 4 C1.34 4 0.68 4 0 4 C0 2.68 0 1.36 0 0 Z " fill="#E41115" transform="translate(306,300)"/>
<path d="M0 0 C0.66 0.33 1.32 0.66 2 1 C1.67 2.98 1.34 4.96 1 7 C0.34 7 -0.32 7 -1 7 C-1.33 8.65 -1.66 10.3 -2 12 C-3.12377697 8.69564916 -2.89554742 6.9493138 -1.5625 3.75 C-1.27503906 3.04359375 -0.98757812 2.3371875 -0.69140625 1.609375 C-0.46324219 1.07828125 -0.23507813 0.5471875 0 0 Z " fill="#E01119" transform="translate(137,208)"/>
<path d="M0 0 C0.99 1.32 1.98 2.64 3 4 C2.34 5.32 1.68 6.64 1 8 C-0.32 6.35 -1.64 4.7 -3 3 C-2.01 2.01 -1.02 1.02 0 0 Z " fill="#FEF2EF" transform="translate(163,171)"/>
<path d="M0 0 C3.96 1.98 3.96 1.98 8 4 C8 4.33 8 4.66 8 5 C5.69 5.33 3.38 5.66 1 6 C0.67 4.02 0.34 2.04 0 0 Z " fill="#D82425" transform="translate(302,153)"/>
<path d="M0 0 C5.75 0.75 5.75 0.75 8 3 C5.03 3 2.06 3 -1 3 C-0.67 2.01 -0.34 1.02 0 0 Z " fill="#F40808" transform="translate(291,151)"/>
<path d="M0 0 C0.66 0 1.32 0 2 0 C3.625 2 3.625 2 5 4 C4.01 5.485 4.01 5.485 3 7 C2.01 7 1.02 7 0 7 C0.2784375 6.1028125 0.2784375 6.1028125 0.5625 5.1875 C1.22093687 2.83591238 1.22093687 2.83591238 0 0 Z " fill="#DE110C" transform="translate(196,355)"/>
<path d="M0 0 C0.33 0.99 0.66 1.98 1 3 C1.99 3.33 2.98 3.66 4 4 C3.67 4.66 3.34 5.32 3 6 C0.36 4.68 -2.28 3.36 -5 2 C-5 1.67 -5 1.34 -5 1 C-3.35 0.67 -1.7 0.34 0 0 Z " fill="#D6262C" transform="translate(204,346)"/>
<path d="M0 0 C2.97 0 5.94 0 9 0 C9 0.99 9 1.98 9 3 C8.071875 2.79375 7.14375 2.5875 6.1875 2.375 C2.84826598 1.63307034 2.84826598 1.63307034 0 4 C0 2.68 0 1.36 0 0 Z " fill="#FDDBD9" transform="translate(329,332)"/>
<path d="M0 0 C1.98 0.99 1.98 0.99 4 2 C4 2.66 4 3.32 4 4 C4.66 4 5.32 4 6 4 C6.33 5.65 6.66 7.3 7 9 C4.03595495 6.19195732 1.55500981 3.81684226 0 0 Z " fill="#FEDDDB" transform="translate(154,317)"/>
<path d="M0 0 C0 2 0 4 0 6 C-3 8 -3 8 -5.1875 7.625 C-5.785625 7.41875 -6.38375 7.2125 -7 7 C-4.66666667 4.66666667 -2.33333333 2.33333333 0 0 Z " fill="#FEE1DF" transform="translate(340,313)"/>
<path d="M0 0 C0.33 0 0.66 0 1 0 C1.25532751 3.06393013 1.21861333 4.63233212 -0.375 7.3125 C-1.179375 8.1478125 -1.179375 8.1478125 -2 9 C-2.66 9 -3.32 9 -4 9 C-2.80100302 5.9168649 -1.52299523 2.93720508 0 0 Z " fill="#FEE1D8" transform="translate(348,299)"/>
<path d="M0 0 C0.33 0.99 0.66 1.98 1 3 C-0.40445835 5.2636564 -2.1967913 7.0208685 -4 9 C-4.33 8.01 -4.66 7.02 -5 6 C-3.59554165 3.7363436 -1.8032087 1.9791315 0 0 Z " fill="#CA3434" transform="translate(182,294)"/>
<path d="M0 0 C2 0 2 0 3.6875 1.25 C5 3 5 3 4.8125 5.125 C4 7 4 7 2 8 C2 6.35 2 4.7 2 3 C1.34 3 0.68 3 0 3 C0 2.01 0 1.02 0 0 Z " fill="#DD170F" transform="translate(149,205)"/>
<path d="M0 0 C3.0916909 2.52956528 3.90931332 5.22454612 5 9 C4.01 8.67 3.02 8.34 2 8 C2 7.01 2 6.02 2 5 C1.34 5 0.68 5 0 5 C0 3.35 0 1.7 0 0 Z " fill="#D5272E" transform="translate(343,192)"/>
<path d="M0 0 C2.475 0.495 2.475 0.495 5 1 C5.33 3.31 5.66 5.62 6 8 C3.87961365 5.38485683 1.86908256 2.80362384 0 0 Z " fill="#D72827" transform="translate(341,176)"/>
<path d="M0 0 C4.875 4.625 4.875 4.625 6 8 C4.02 7.34 2.04 6.68 0 6 C0 4.02 0 2.04 0 0 Z " fill="#DA2B2F" transform="translate(182,174)"/>
<path d="M0 0 C4 1 4 1 7 3 C6.67 4.32 6.34 5.64 6 7 C4.02 4.69 2.04 2.38 0 0 Z " fill="#D0161D" transform="translate(192,169)"/>
<path d="M0 0 C1.5625 1.8125 1.5625 1.8125 3 4 C2.67 4.99 2.34 5.98 2 7 C0.35 5.02 -1.3 3.04 -3 1 C-2.01 0.67 -1.02 0.34 0 0 Z " fill="#D51A1C" transform="translate(172,323)"/>
<path d="M0 0 C0.33 0.66 0.66 1.32 1 2 C0.07421875 3.9453125 0.07421875 3.9453125 -1.3125 6.125 C-1.76238281 6.84945313 -2.21226562 7.57390625 -2.67578125 8.3203125 C-3.11277344 8.87460937 -3.54976563 9.42890625 -4 10 C-4.66 10 -5.32 10 -6 10 C-4.34832443 6.4213696 -2.21713508 3.25179812 0 0 Z " fill="#CE2D31" transform="translate(349,312)"/>
<path d="M0 0 C0.99 0 1.98 0 3 0 C4.5625 2.8125 4.5625 2.8125 6 6 C5.67 6.99 5.34 7.98 5 9 C4.16094435 7.87926138 3.32892169 6.75325453 2.5 5.625 C2.0359375 4.99851562 1.571875 4.37203125 1.09375 3.7265625 C0 2 0 2 0 0 Z " fill="#CC2824" transform="translate(159,311)"/>
<path d="M0 0 C0.66 0.33 1.32 0.66 2 1 C0.68 4.3 -0.64 7.6 -2 11 C-3.28485596 5.86057616 -2.22194431 4.62164416 0 0 Z " fill="#FDD8CE" transform="translate(149,201)"/>
<path d="M0 0 C0.66 0 1.32 0 2 0 C2 0.66 2 1.32 2 2 C4.475 2.99 4.475 2.99 7 4 C5.68 4.99 4.36 5.98 3 7 C2.01 4.69 1.02 2.38 0 0 Z " fill="#FDE3DE" transform="translate(190,184)"/>
<path d="M0 0 C2.96052484 3.36423277 3.92289822 6.69159287 5 11 C0.05973451 6.28429204 0.05973451 6.28429204 -0.125 2.3125 C-0.08375 1.549375 -0.0425 0.78625 0 0 Z " fill="#DD272B" transform="translate(199,173)"/>
<path d="M0 0 C0.66 1.32 1.32 2.64 2 4 C0.02 4.99 0.02 4.99 -2 6 C-2.33 4.68 -2.66 3.36 -3 2 C-2.01 1.34 -1.02 0.68 0 0 Z " fill="#DA1511" transform="translate(319,330)"/>
<path d="M0 0 C0.99 0 1.98 0 3 0 C2.39816251 2.02045442 1.72693904 4.02111039 1 6 C0.01 6.495 0.01 6.495 -1 7 C-0.67 4.69 -0.34 2.38 0 0 Z " fill="#D1262A" transform="translate(346,297)"/>
<path d="M0 0 C0.66 0 1.32 0 2 0 C2.33 0.99 2.66 1.98 3 3 C1.0625 6.1875 1.0625 6.1875 -1 9 C-2.25541557 5.23375329 -1.37061958 3.62811066 0 0 Z " fill="#D61E23" transform="translate(153,177)"/>
<path d="M0 0 C1.32 0 2.64 0 4 0 C4 0.66 4 1.32 4 2 C5.32 2.33 6.64 2.66 8 3 C8 3.99 8 4.98 8 6 C7.01 5.67 6.02 5.34 5 5 C5 4.34 5 3.68 5 3 C2.525 2.01 2.525 2.01 0 1 C0 0.67 0 0.34 0 0 Z " fill="#FACBC1" transform="translate(175,168)"/>
<path d="M0 0 C2.64 0 5.28 0 8 0 C8 0.99 8 1.98 8 3 C2.25 2.25 2.25 2.25 0 0 Z " fill="#D12D2D" transform="translate(168,157)"/>
<path d="M0 0 C1.134375 0.020625 2.26875 0.04125 3.4375 0.0625 C3.4375 0.7225 3.4375 1.3825 3.4375 2.0625 C0.5625 2.6875 0.5625 2.6875 -2.5625 3.0625 C-3.2225 2.4025 -3.8825 1.7425 -4.5625 1.0625 C-3.5625 0.0625 -3.5625 0.0625 0 0 Z " fill="#F60A14" transform="translate(172.5625,151.9375)"/>
</svg>
